<svg width="70px" height="100px" viewBox="206 81 70 100" version="1.1" xmlns="http://www.w3.org/2000/svg" xmlns:xlink="http://www.w3.org/1999/xlink">
    <g id="orange_logomark" stroke="none" stroke-width="1" fill="none" fill-rule="evenodd" transform="translate(206.000000, 81.000000)">
        <path d="M69.4849727,31.604918 C69.4849727,31.604918 69.3336066,31.9297814 69.0229508,32.5060109 C68.945082,32.65 68.8584699,32.8106557 68.7620219,32.9877049 C68.6625683,33.1622951 68.5311475,33.342623 68.3969945,33.5461749 C68.2603825,33.7478142 68.1117486,33.9688525 67.9453552,34.2027322 C67.7795082,34.4396175 67.5907104,34.6584699 67.3887978,34.9054645 C66.5934426,35.8931694 65.4713115,37.0043716 63.9128415,38.0535519 C62.3612022,39.0959016 60.329235,40.0456284 57.9188525,40.5434426 C57.6193989,40.5980874 57.3144809,40.6546448 57.0038251,40.702459 C56.8480874,40.726776 56.6923497,40.7508197 56.534153,40.7751366 C56.3778689,40.7909836 56.2202186,40.8065574 56.0620219,40.8226776 C55.7448087,40.8530055 55.4218579,40.8852459 55.0945355,40.9076503 C54.770765,40.9144809 54.4442623,40.9215847 54.1144809,40.9289617 C53.9483607,40.9311475 53.781694,40.9336066 53.6136612,40.9355191 C53.4491803,40.9284153 53.2838798,40.9213115 53.1174863,40.9142077 C52.7836066,40.8953552 52.4469945,40.8759563 52.1076503,40.8565574 C51.4459016,40.7863388 50.7505464,40.7202186 50.0846995,40.5918033 C49.7494536,40.5306011 49.4019126,40.4789617 49.0672131,40.404918 C48.7336066,40.3256831 48.3978142,40.2464481 48.0601093,40.1663934 C47.386612,40.0019126 46.7210383,39.8051913 46.0587432,39.5882514 C45.7308743,39.4759563 45.4008197,39.363388 45.0696721,39.25 C44.7363388,39.1360656 44.4234973,38.9997268 44.0967213,38.873224 C43.4401639,38.6188525 42.8131148,38.3382514 42.173224,38.0445355 C39.6557377,36.8598361 37.2513661,35.4226776 35.0180328,33.831694 C32.7718579,32.2453552 30.6666667,30.5229508 28.6822404,28.7483607 C26.6997268,26.9663934 24.8453552,25.1377049 23.0915301,23.3169399 C21.339071,21.4986339 19.7081967,19.6811475 18.1666667,17.9325137 C16.6270492,16.1871585 15.1844262,14.5092896 13.8240437,12.9459016 C12.4631148,11.3909836 11.184153,9.9568306 9.9704918,8.6852459 C8.75655738,7.4147541 7.60491803,6.32896175 6.50546448,5.43087432 C5.40819672,4.53333333 4.35464481,3.83852459 3.39699454,3.33688525 C2.91885246,3.0715847 2.46885246,2.89153005 2.05956284,2.70409836 C1.8557377,2.62295082 1.66338798,2.56393443 1.48306011,2.49644809 C1.30273224,2.43142077 1.13415301,2.36174863 0.983333333,2.31912568 C0.357103825,2.13770492 0.0229508197,2.04098361 0.0229508197,2.04098361 C0.0229508197,2.04098361 0.299180328,1.83251366 0.880874317,1.47513661 C1.17349727,1.31038251 1.54754098,1.12349727 2.00874317,0.923497268 C2.46939891,0.750819672 3.02185792,0.534972678 3.65846995,0.399453552 C4.93169399,0.0918032787 6.56693989,-0.0598360656 8.4079235,0.0983606557 C10.2472678,0.251639344 12.2868852,0.696994536 14.3571038,1.41994536 C16.4284153,2.14180328 18.5497268,3.1204918 20.6494536,4.28551913 C22.742623,5.45300546 24.8221311,6.80300546 26.8560109,8.26557377 C28.8836066,9.73032787 30.8803279,11.3002732 32.8095628,12.9273224 C34.7407104,14.5489071 36.623224,16.2248634 38.4551913,17.8622951 C40.2822404,19.5095628 42.0581967,21.1355191 43.7825137,22.6584699 C45.5065574,24.1918033 47.1726776,25.6122951 48.7773224,26.8920765 C49.5803279,27.515847 50.3699454,28.1139344 51.1407104,28.6565574 C51.3346995,28.8021858 51.5273224,28.9153005 51.7191257,29.0467213 C51.9092896,29.1756831 52.1,29.318306 52.289071,29.4303279 C52.479235,29.5505464 52.668306,29.6699454 52.8560109,29.7887978 C53.0442623,29.9071038 53.2286885,30.0114754 53.415847,30.1245902 C53.6016393,30.2382514 53.7877049,30.3497268 53.9718579,30.4418033 C54.157377,30.5385246 54.3393443,30.6453552 54.5240437,30.7480874 C54.7076503,30.8382514 54.8907104,30.9281421 55.0715847,31.0166667 C55.1631148,31.0614754 55.2540984,31.1071038 55.3456284,31.1551913 L55.6163934,31.2743169 C55.7994536,31.3557377 55.9811475,31.436612 56.1606557,31.5166667 C56.3407104,31.5803279 56.5202186,31.6535519 56.7008197,31.7243169 C56.7918033,31.7603825 56.8819672,31.7961749 56.9724044,31.8322404 C57.0622951,31.8606557 57.1516393,31.889071 57.2409836,31.9172131 C57.4213115,31.9721311 57.6008197,32.0355191 57.7822404,32.0969945 C59.2177596,32.5256831 60.6704918,32.7199454 62.060929,32.7346995 C63.4469945,32.7486339 64.7625683,32.6090164 65.860929,32.4021858 C66.4251366,32.3161202 66.9076503,32.2087432 67.3508197,32.1177596 C67.5718579,32.0702186 67.7773224,32.0286885 67.9721311,31.9814208 C68.165847,31.9297814 68.3428962,31.8836066 68.5010929,31.8420765 C69.1336066,31.6756831 69.4849727,31.604918 69.4849727,31.604918" id="Fill-1" fill="#FFFFFF"></path>
        <path d="M60.5418033,53.6396175 C60.1540984,53.7172131 59.6822404,53.8177596 59.1327869,53.9204918 C58.8601093,53.9762295 58.5620219,54.020765 58.25,54.0724044 C57.9415301,54.1308743 57.6106557,54.179235 57.2644809,54.2265027 C55.8778689,54.4139344 54.229235,54.5699454 52.4330601,54.5226776 C50.6355191,54.4784153 48.7030055,54.2360656 46.7404372,53.6920765 C44.7740437,53.1532787 42.776776,52.320765 40.7472678,51.1989071 C38.7150273,50.076776 36.6527322,48.6693989 34.5098361,47.0210383 C33.4382514,46.1953552 32.3407104,45.3218579 31.1945355,44.3852459 C30.6038251,43.9068306 30.0098361,43.4256831 29.4125683,42.9423497 C28.789071,42.4505464 28.1472678,41.9437158 27.4297814,41.4054645 C27.076776,41.1371585 26.6898907,40.8636612 26.2778689,40.5827869 C25.8655738,40.3021858 25.4071038,40.0054645 24.8724044,39.6942623 C24.3281421,39.3844262 23.7224044,39.0453552 22.815847,38.7008197 L22.4642077,38.5745902 C22.35,38.5336066 22.1934426,38.4871585 22.0587432,38.4467213 C21.9142077,38.404918 21.7896175,38.3672131 21.6262295,38.3273224 C21.4581967,38.2868852 21.2887978,38.2497268 21.1193989,38.2155738 C21.0303279,38.1983607 20.9571038,38.1825137 20.8560109,38.1663934 L20.5483607,38.1224044 L20.2396175,38.0863388 L20.0844262,38.0710383 C20.0363388,38.0661202 19.9800546,38.0617486 19.9150273,38.0590164 C19.6680328,38.0456284 19.4196721,38.0404372 19.1718579,38.0437158 L18.9857923,38.0480874 L18.768306,38.0617486 C18.6229508,38.0726776 18.4778689,38.0868852 18.3333333,38.1035519 C18.1882514,38.1204918 18.0439891,38.1404372 17.9002732,38.1631148 C17.7467213,38.1898907 17.5786885,38.2256831 17.4193989,38.2631148 C17.2581967,38.3005464 17.0978142,38.3428962 16.9387978,38.3887978 C16.781694,38.4330601 16.623224,38.4830601 16.452459,38.5480874 C16.1191257,38.6721311 15.7904372,38.8150273 15.473224,38.9745902 C15.1581967,39.1418033 14.8494536,39.3286885 14.5538251,39.5308743 C14.4013661,39.6333333 14.2666667,39.7349727 14.1371585,39.8398907 C14.0060109,39.945082 13.8770492,40.0540984 13.7508197,40.1661202 C13.6254098,40.2773224 13.5002732,40.3937158 13.3833333,40.5098361 C13.2797814,40.6163934 13.1784153,40.7254098 13.079235,40.8368852 C12.9797814,40.9483607 12.8830601,41.0617486 12.789071,41.1773224 C12.6956284,41.2920765 12.5969945,41.4169399 12.5308743,41.5128415 C12.3836066,41.718306 12.2431694,41.9297814 12.1103825,42.145082 L12.0122951,42.3071038 L11.9346995,42.4472678 L11.7871585,42.7262295 L11.6472678,43.0090164 C11.6030055,43.1016393 11.5530055,43.2068306 11.5234973,43.2800546 C11.4554645,43.4398907 11.3912568,43.6021858 11.3303279,43.7647541 L11.2409836,44.0101093 L11.1726776,44.2226776 C10.9893443,44.8021858 10.8844262,45.2860656 10.8038251,45.7259563 C10.647541,46.6071038 10.6065574,47.2704918 10.5765027,47.9035519 L10.5617486,48.3655738 L10.5584699,48.7959016 C10.5557377,49.0904372 10.5631148,49.3453552 10.5718579,49.6199454 C10.6136612,50.6797814 10.7013661,51.6262295 10.8038251,52.542623 C10.9038251,53.4571038 11.0448087,54.3314208 11.1797814,55.1912568 C11.3177596,56.0453552 11.470765,56.8877049 11.639071,57.7095628 C11.8046448,58.5346995 11.9680328,59.3469945 12.1551913,60.1491803 C12.8756831,63.3560109 13.7177596,66.4185792 14.6144809,69.3527322 C16.407377,75.2163934 18.4314208,80.5530055 20.3882514,85.0729508 C21.3663934,87.3322404 22.3265027,89.386612 23.2229508,91.1953552 C24.1215847,93.0032787 24.9483607,94.5680328 25.6743169,95.8461749 C25.8540984,96.165847 26.0248634,96.4685792 26.1852459,96.7540984 C26.3521858,97.036612 26.5087432,97.302459 26.6546448,97.5494536 C26.9431694,98.0439891 27.2030055,98.4612022 27.4147541,98.7989071 C27.8371585,99.4756831 28.0833333,99.8311475 28.0833333,99.8311475 C28.0833333,99.8311475 28.1456284,99.4032787 28.2224044,98.6095628 C28.2620219,98.2122951 28.3090164,97.7229508 28.3472678,97.1519126 C28.3680328,96.8661202 28.3904372,96.5587432 28.4144809,96.2308743 C28.431694,95.904918 28.4497268,95.5579235 28.4693989,95.1918033 C28.552459,93.7256831 28.6008197,91.957377 28.6092896,89.9418033 C28.6166667,87.9270492 28.5762295,85.6655738 28.4721311,83.215847 C28.3677596,80.7661202 28.1991803,78.1275956 27.9631148,75.3576503 C27.7278689,72.5874317 27.4213115,69.6844262 27.0628415,66.7092896 C26.7062842,63.7352459 26.292623,60.6836066 25.8726776,57.6516393 C25.8325137,57.3565574 25.792623,57.0590164 25.7530055,56.763388 C26.4172131,57.1412568 27.0909836,57.510929 27.7756831,57.8622951 C30.7554645,59.4076503 33.926776,60.6639344 37.1142077,61.3980874 C40.2980874,62.1401639 43.4898907,62.3393443 46.3516393,62.015847 C49.2202186,61.7046448 51.7259563,60.8923497 53.7398907,59.9254098 C54.2467213,59.6879781 54.720765,59.4311475 55.1699454,59.1762295 C55.3918033,59.0456284 55.6087432,58.9166667 55.8229508,58.7907104 C56.0297814,58.6560109 56.2325137,58.5243169 56.4311475,58.395082 C57.2177596,57.8724044 57.8989071,57.3497268 58.4803279,56.8448087 C59.0677596,56.35 59.5622951,55.884153 59.9693989,55.4557377 C60.1734973,55.2415301 60.3661202,55.0557377 60.529235,54.8650273 C60.6923497,54.6775956 60.8409836,54.5068306 60.9729508,54.3540984 C61.236612,54.0513661 61.4196721,53.7956284 61.5491803,53.6352459 C61.6743169,53.4691257 61.7393443,53.3830601 61.7393443,53.3830601 C61.7393443,53.3830601 61.3106557,53.4702186 60.5418033,53.6396175" id="Fill-2" fill="#FFFFFF"></path>
    </g>
</svg>