<svg width="58px" height="60px" viewBox="691 276 58 60" version="1.1" xmlns="http://www.w3.org/2000/svg" xmlns:xlink="http://www.w3.org/1999/xlink">
    <path d="M719.571429,276 C711.558369,276 704.778776,281.275561 702.517857,288.544643 C695.913905,290.115597 691,296.05814 691,303.142857 C691,310.446133 696.230704,316.514142 703.142857,317.852679 L703.142857,327.428571 L736,327.428571 L736,317.852679 C742.912153,316.514142 748.142857,310.446133 748.142857,303.142857 C748.142857,296.05814 743.228952,290.115597 736.625,288.544643 C734.364081,281.275561 727.584489,276 719.571429,276 L719.571429,276 Z M703.142857,330.285714 L703.142857,336 L736,336 L736,330.285714 L703.142857,330.285714 L703.142857,330.285714 Z" id="Shape" stroke="none" fill="#EC5623" fill-rule="evenodd"></path>
</svg>