<svg width="40px" height="40px" viewBox="21 364 40 40" version="1.1" xmlns="http://www.w3.org/2000/svg" xmlns:xlink="http://www.w3.org/1999/xlink">
    <path d="M59.8264632,367.490118 C59.7034374,366.8744 55.7666141,369.337272 55.7051012,369.337272 C55.8896398,368.59841 57.9195644,364.965675 57.3659486,364.904103 C31.0384425,359.916789 33.0068542,387.377805 33.0068542,387.377805 C27.4706964,385.900082 21.75,390.579538 21.75,390.579538 L31.2229811,393.534983 L34.1755986,403.07861 C34.1755986,403.07861 38.8505763,397.352434 37.3742676,391.749401 C37.3742676,391.749401 64.6244666,393.78127 59.8264632,367.490118 L59.8264632,367.490118 Z M51.8297908,376.294883 L50.7225592,377.280032 C50.2919692,377.649463 49.6768405,377.89575 49.1232247,377.89575 C48.4465832,377.89575 47.7699417,377.587891 47.3393517,377.095317 C46.4781716,376.110168 46.5396844,374.570873 47.5854031,373.708868 L48.6926347,372.72372 C49.6768405,371.861715 51.2146621,371.923287 52.0758422,372.970007 C52.9370223,373.893584 52.8139966,375.432878 51.8297908,376.294883 L51.8297908,376.294883 Z" id="fish" stroke="none" fill="#6A6A6A" fill-rule="evenodd"></path>
</svg>