<svg width="69px" height="61px" viewBox="686 276 69 61" version="1.1" xmlns="http://www.w3.org/2000/svg" xmlns:xlink="http://www.w3.org/1999/xlink">
    <path d="M751.977309,336 L720.112281,336 L688.247253,336 C686.520143,336 685.440319,334.120364 686.303874,332.616352 L693.839872,319.493806 L746.38469,319.493806 L753.920688,332.616352 C754.783484,334.120364 753.704419,336 751.977309,336 L751.977309,336 Z M706.90854,297.017093 L733.316022,297.017093 L742.985106,313.510387 L697.239456,313.510387 L706.90854,297.017093 L706.90854,297.017093 Z M731.033444,300.758912 L709.191118,300.758912 L703.91721,309.754909 L736.307352,309.754909 L731.033444,300.758912 L731.033444,300.758912 Z M718.168903,277.128009 C719.032458,275.623997 721.191345,275.623997 722.0549,277.128009 L730.151677,291.001802 L710.27777,291.001802 L718.168903,277.128009 L718.168903,277.128009 Z M720.112281,281.238622 L716.451658,287.250877 L723.542977,287.250877 L720.112281,281.238622 L720.112281,281.238622 Z" id="Shape" stroke="none" fill="#EC5623" fill-rule="evenodd"></path>
</svg>