<svg width="81px" height="80px" viewBox="7 10 81 80" version="1.1" xmlns="http://www.w3.org/2000/svg" xmlns:xlink="http://www.w3.org/1999/xlink">
    <g id="fresh-icon" stroke="none" stroke-width="1" fill="none" fill-rule="evenodd" transform="translate(7.000000, 10.000000)">
        <path d="M54.5907352,11.6719475 C53.9303874,11.911526 52.8260652,12.4233096 51.4255506,13.2602716 C49.1142691,14.6415176 46.8074039,16.4534531 44.6559748,18.7494975 C40.7325411,22.9366575 37.7744185,28.2546644 36.1741438,34.8189831 C34.8409707,40.2874137 37.4650629,48.8011912 41.5387106,52.2523905 L41.118646,51.2359422 C40.7890891,55.143114 41.1750481,58.7031632 42.1222143,61.9008117 L44.1901359,60.7863756 C43.1329096,59.5327547 41.8836781,58.3637297 40.4206567,57.2968275 L40.9135228,58.2800129 C40.9573638,54.4156117 37.5902122,49.0162759 33.9777848,47.1577406 C27.3472455,43.7467283 21.0408925,43.537005 15.6215407,45.2397992 C14.3969942,45.6245593 13.5129971,46.0162551 13.0157303,46.293445 C12.5983821,46.5260861 12.3588175,46.9841544 12.4058203,47.4596458 C12.4760431,48.1700368 12.72237,49.3463501 13.2535215,50.8349519 C14.1288658,53.2881862 15.507896,55.736829 17.4995392,58.0188995 C19.5443709,60.3619146 22.1273294,62.3945602 25.2999465,64.0263269 C28.8904717,65.8734844 33.3975459,65.2357578 38.083176,63.2312854 C38.8389398,62.9079761 39.0532431,61.937686 38.5039571,61.3261366 C34.8599716,57.2690941 28.6163505,52.7926568 24.9647301,51.2087072 L24.2917421,53.4935748 C24.9932956,53.6093915 25.7156839,53.7881432 26.4574402,54.0279286 C30.0142127,55.177716 33.879604,57.6691251 37.8557882,61.1198748 C39.5769249,62.6135711 41.2275131,64.2077248 42.8134638,65.8662358 C43.4024406,66.4821594 43.9530891,67.0761178 44.4985013,67.6790214 C44.6979042,67.8994433 44.8837285,68.1067304 45.097549,68.3466821 C45.0469424,68.2898909 45.4452344,68.7373855 45.5218968,68.8228549 L46.4152,68.0216 L45.4662027,68.7560414 C45.5910141,68.9173146 45.6867365,69.0318838 45.7473167,69.099454 C46.4277014,69.8583446 47.6845979,69.477096 47.8287394,68.4681056 C47.8433639,68.2861816 47.8433639,68.2861816 47.8416,68.2656 L46.6416,68.2656 L45.8208706,69.1410446 C45.8115499,69.1321774 45.8115499,69.1321774 45.8152799,69.1357845 C45.8087702,69.1468994 45.8087702,69.1468994 46.2048968,69.401374 C47.0585915,69.7672432 47.9864428,69.0662447 47.8677633,68.1450661 C47.8550168,68.046129 47.8279568,67.8881088 47.7819583,67.6775217 L46.6096,67.9336 L47.8009748,67.7899822 C47.7792528,67.6097883 47.6244497,66.4196832 47.572569,66.0067006 C47.4477838,65.0133794 47.3361161,64.0501022 47.2300248,63.020566 C46.5985485,56.8925603 46.4097835,50.8564818 46.9143279,45.1745504 C47.4725217,38.8884453 48.8530326,33.6753079 51.1818364,29.8822652 L49.0145362,28.8941989 C47.3244191,34.265131 46.3173224,45.1550504 47.2797109,52.8355958 C47.3819105,53.651222 48.2553695,54.1249593 48.9947479,53.7657791 C55.4373451,50.6360517 60.256066,46.444158 61.580248,41.0130505 C63.8188094,31.8312886 62.6498534,23.8388268 59.3297569,17.2260669 C58.5863885,15.7454723 57.7881394,14.4542033 56.9867371,13.3577089 C56.4976601,12.6885442 56.1088648,12.2258498 55.8714964,11.9750794 C55.543009,11.6280453 55.0399312,11.5089763 54.5907352,11.6719475 L54.5907352,11.6719475 Z M55.4092648,13.9280525 L54.1285036,13.6249206 C54.1634049,13.6617925 54.243088,13.7509429 54.3612106,13.8915173 C54.5667478,14.1361213 54.7981494,14.4305322 55.0490976,14.7738845 C55.7745713,15.7664919 56.5031983,16.9451383 57.1849142,18.3029372 C60.260591,24.4288774 61.3452209,31.8447788 59.2485495,40.4445596 C58.1409301,44.9874397 53.8011533,48.7626912 47.9460521,51.6070209 L49.6610891,52.5372042 C48.7418042,45.2006556 49.7167743,34.6581275 51.3038638,29.6146011 C51.7284671,28.2652772 49.876688,27.4210561 49.1365636,28.6265348 C46.5819913,32.7872982 45.11189,38.3387502 44.5237344,44.9622704 C44.0035793,50.8200017 44.1968164,56.9990822 44.8426668,63.2665776 C44.9507314,64.3152633 45.0644099,65.2958858 45.1912855,66.3058475 C45.2444312,66.7289001 45.3981238,67.9104675 45.4182252,68.0772178 L45.4372417,68.1896783 C45.4680432,68.3306912 45.4833832,68.420271 45.4874367,68.4517339 L46.6776,68.2984 L47.1503032,67.195426 C47.5283074,67.4365945 47.5283074,67.4365945 47.4914303,67.4180767 C47.4830134,67.4098308 47.4830134,67.4098308 47.4623294,67.3901554 C46.6959302,66.6716562 45.4416,67.2150722 45.4416,68.2656 C45.4398361,68.2866184 45.4398361,68.2866184 45.4528606,68.1286944 L46.6408,68.2984 L47.5342833,67.497346 C47.5116635,67.4721162 47.4529859,67.4018854 47.3641973,67.2871586 L47.3085032,67.2203451 C47.2354439,67.1388928 46.842659,66.6975855 46.8893645,66.749999 C46.6718566,66.5059092 46.482204,66.2943515 46.2782929,66.0689464 C45.7187909,65.4504678 45.1533069,64.8405069 44.5480399,64.2075478 C42.913766,62.4985028 41.210777,60.85374 39.4288508,59.3072871 C35.2304657,55.6636993 31.1155325,53.0114499 27.1956666,51.7442863 C26.3435684,51.4688311 25.5056238,51.2614855 24.6826579,51.1256252 C23.2869267,50.8952093 22.7118801,52.8475554 24.0096699,53.4104928 C27.3462622,54.8577939 33.3062229,59.1308575 36.7184429,62.9298634 L37.139224,61.0247146 C33.0540816,62.7723035 29.1754336,63.3211112 26.397759,61.8921274 C23.4967986,60.4000814 21.154404,58.5567463 19.3077513,56.4408092 C17.5238451,54.3967684 16.2924621,52.2102921 15.5139386,50.0284071 C15.2434023,49.2702039 15.0489829,48.569441 14.9183092,47.9454196 C14.8425007,47.5834023 14.8053227,47.3362794 14.7941797,47.2235542 L14.1842697,48.389755 C14.2604035,48.347316 14.4363211,48.2590189 14.7056842,48.1396651 C15.171684,47.9331824 15.7188902,47.724894 16.3409589,47.5294361 C21.1943204,46.0044797 26.8555714,46.1927495 32.8798525,49.2918785 C35.6964755,50.7409854 38.5470404,55.3119578 38.5136772,58.2527871 C38.5092737,58.6409422 38.6929027,59.0072514 39.0065433,59.2359725 C40.312787,60.1885453 41.4211404,61.2257372 42.3554641,62.3336244 C43.1934228,63.3272457 44.7925391,62.4654563 44.4233857,61.2191883 C43.5596546,58.3032182 43.2061194,55.0422427 43.510154,51.4376578 C43.5427806,51.0508421 43.3862747,50.6721381 43.0900894,50.4212095 C39.7211885,47.5670726 37.3846697,39.9863174 38.5058534,35.3874286 C40.0058716,29.2343618 42.7601808,24.2827632 46.4072874,20.3905045 C48.3982697,18.2656919 50.5297024,16.5915505 52.6567188,15.3204233 C53.3965364,14.8783006 54.0807453,14.5188425 54.6908851,14.2360813 C55.0472432,14.0709319 55.292887,13.9702751 55.4092648,13.9280525 L55.4092648,13.9280525 Z" id="Shape" fill="#EC5623"></path>
        <path d="M40,77 L40,77 C60.4345357,77 77,60.4345357 77,40 C77,19.5654643 60.4345357,3 40,3 C19.5654643,3 3,19.5654643 3,40 C3,60.4345357 19.5654643,77 40,77 L40,77 Z M40,80 L40,80 C17.90861,80 0,62.09139 0,40 C0,17.90861 17.90861,0 40,0 C62.09139,0 80,17.90861 80,40 C80,62.09139 62.09139,80 40,80 L40,80 Z" id="Oval-29" fill="#EC5623"></path>
    </g>
</svg>