<svg width="45px" height="40px" viewBox="47 0 45 40" version="1.1" xmlns="http://www.w3.org/2000/svg" xmlns:xlink="http://www.w3.org/1999/xlink">
    <path d="M88.3962139,28.235023 C88.3962139,29.2599351 88.1598275,30.2702495 87.6924621,31.2367708 C87.3309298,31.9881682 86.8380718,32.6888577 86.2301105,33.319632 C84.3019386,35.3187484 81.4282208,36.465052 78.3466992,36.465052 L77.7696381,36.465052 L77.7696381,34.1171273 C77.7696381,33.4594626 77.2335198,32.9262624 76.5722557,32.9262624 C75.9109916,32.9262624 75.3748733,33.4594626 75.3748733,34.1171273 L75.3748733,36.465052 L69.4891593,36.465052 L69.4891593,34.1171273 C69.4891593,33.4594626 68.953041,32.9262624 68.2917769,32.9262624 C67.6305128,32.9262624 67.0943945,33.4594626 67.0943945,34.1171273 L67.0943945,36.465052 L62.3913853,36.465052 L62.3913853,29.4112902 C62.3913853,28.7536254 61.855267,28.2204253 61.1947754,28.2204253 C60.5335113,28.2204253 59.997393,28.7536254 59.997393,29.4112902 L59.997393,36.465052 L55.2943839,36.465052 L55.2943839,34.1171273 C55.2943839,33.4594626 54.7582656,32.9262624 54.0970015,32.9262624 C53.4357374,32.9262624 52.899619,33.4594626 52.899619,34.1171273 L52.899619,36.465052 L50.553522,36.465052 L50.553522,24.6816357 L77.7549605,24.6816357 L78.077095,24.674721 C78.1667056,24.6785625 78.2563161,24.6816357 78.3466992,24.6816357 C82.108025,24.6816357 85.6909022,23.4223921 88.3962139,21.2235177 L88.3962139,28.235023 Z M78.3466992,7.16132378 C81.2860799,7.16132378 83.6692571,9.22190423 83.6692571,11.764977 C83.6692571,14.3065133 81.2860799,16.367862 78.3466992,16.367862 C75.406546,16.367862 73.0233687,14.3065133 73.0233687,11.764977 C73.0233687,9.22190423 75.406546,7.16132378 78.3466992,7.16132378 L78.3466992,7.16132378 Z M78.3466992,0 C70.8333176,0 64.7428899,5.26669612 64.7428899,11.764977 L64.7428899,21.147456 L49.3654097,21.147456 C48.0591041,21.147456 47,22.2007952 47,23.4999904 L47,37.6466973 C47,38.9458925 48.0591041,40 49.3654097,40 L78.3466992,40 C83.3787953,40 87.7619875,37.630563 90.1150371,34.1171273 C91.2753393,32.3853793 91.9497359,30.3801164 91.9497359,28.235023 L91.9497359,11.764977 C91.9497359,5.26669612 85.8593082,0 78.3466992,0 L78.3466992,0 Z" id="Fill-1" stroke="none" fill="#EC5623" fill-rule="evenodd"></path>
</svg>