<svg width="60px" height="60px" viewBox="690 276 60 60" version="1.1" xmlns="http://www.w3.org/2000/svg" xmlns:xlink="http://www.w3.org/1999/xlink">
    <path d="M720,336 C736.519824,336 750,322.519824 750,306 C750,289.480176 736.519824,276 720,276 C703.480176,276 690,289.480176 690,306 C690,322.519824 703.480176,336 720,336 L720,336 Z M720.198238,281.286344 C733.942731,281.286344 745.110132,292.453744 745.110132,306.198238 C745.110132,319.942731 733.942731,331.110132 720.198238,331.110132 L720.198238,331.110132 C706.453744,331.110132 695.286344,319.942731 695.286344,306.198238 C695.286344,292.453744 706.453744,281.286344 720.198238,281.286344 L720.198238,281.286344 Z M720.066079,325.559471 C730.837004,325.559471 739.559471,316.837004 739.559471,306.066079 C739.559471,295.295154 730.837004,286.572687 720.066079,286.572687 C709.295154,286.572687 700.572687,295.295154 700.572687,306.066079 C700.572687,316.837004 709.295154,325.559471 720.066079,325.559471 Z M716.169069,301.563293 L712.153846,299.623968 C712.153846,299.551129 712.208474,299.355377 712.317733,299.036707 C712.426991,298.718037 712.645504,298.290115 712.973279,297.752928 C713.301054,297.215742 713.715319,296.71043 714.216086,296.236977 C714.716854,295.763524 715.42247,295.34926 716.332955,294.99417 C717.243441,294.639081 718.272275,294.461538 719.419487,294.461538 C721.531814,294.461538 723.352759,295.08066 724.882375,296.31892 C726.411991,297.557181 727.176788,299.114089 727.176788,300.98969 C727.176788,303.302324 725.63809,305.114163 722.560648,306.425263 C722.141824,306.60736 721.877787,306.85774 721.768529,307.17641 C721.659271,307.49508 721.604642,307.936659 721.604642,308.501161 L721.604642,310.030769 L717.09776,310.030769 L717.09776,307.053495 C717.09776,306.561833 717.115969,306.174882 717.152389,305.892632 C717.188808,305.610381 717.307169,305.30082 717.507476,304.963941 C717.707783,304.627061 717.999134,304.331157 718.381538,304.076221 C718.672894,303.894124 719.064397,303.680163 719.556059,303.434332 C720.047722,303.188501 720.411911,302.992749 720.648637,302.847072 C720.885363,302.701394 721.103877,302.469223 721.304184,302.150553 C721.50449,301.831883 721.604642,301.444933 721.604642,300.98969 C721.604642,300.33414 721.390681,299.796961 720.962753,299.378138 C720.534825,298.959314 720.011303,298.749906 719.392173,298.749906 C718.499897,298.749906 717.785176,299.036704 717.247989,299.61031 C716.710803,300.183916 716.351166,300.834904 716.169069,301.563293 Z M719.883077,312 C720.757143,312 721.499178,312.305008 722.109204,312.915034 C722.719229,313.525059 723.024238,314.267094 723.024238,315.141161 C723.024238,315.997017 722.719229,316.729947 722.109204,317.339973 C721.499178,317.949999 720.757143,318.255007 719.883077,318.255007 C719.02722,318.255007 718.29429,317.949999 717.684265,317.339973 C717.074239,316.729947 716.769231,315.997017 716.769231,315.141161 C716.769231,314.267094 717.074239,313.525059 717.684265,312.915034 C718.29429,312.305008 719.02722,312 719.883077,312 Z" id="faq-icon" stroke="none" fill="#EC5623" fill-rule="evenodd"></path>
</svg>