<svg width="43px" height="55px" viewBox="69 0 43 55" version="1.1" xmlns="http://www.w3.org/2000/svg" xmlns:xlink="http://www.w3.org/1999/xlink">
    <path d="M102.847715,37.9660324 C100.354928,43.8983921 95.6510786,50.2375053 89.9313472,50.2375053 C84.2167693,50.2375053 79.5152819,43.8983921 77.0224951,37.9660324 C76.8043307,37.4462795 76.2533365,37.1101786 75.7055633,37.1101786 C74.4942781,37.1101786 72.7429499,35.7327888 71.8831757,33.176817 C70.9261294,30.3279827 71.6886314,27.788504 72.9894586,27.3532221 C73.1767021,27.2905932 73.7594761,27.2426743 74.2226461,26.8412699 C77.2958449,24.1805452 82.2288099,12.8774798 82.2288099,12.8774798 C90.3985971,24.3878223 99.5537748,26.2562136 106.466325,27.2687511 C106.576051,27.2843526 106.80259,27.3253622 106.880537,27.3532221 C108.173204,27.82149 108.944081,30.3288743 107.985316,33.1783772 C107.130481,35.7327888 105.379153,37.1101786 104.132867,37.1101786 C103.586811,37.1389299 103.068456,37.4393703 102.847715,37.9660324 M111.149345,50.5247958 C111.149345,50.5247958 111.149345,50.5212297 111.146983,50.5203382 C110.289571,47.6873283 110.055732,44.2084163 110.050578,41.3056454 C110.048001,38.9411263 110.195735,36.9786802 110.281197,36.0392469 C110.405525,35.8199343 110.918727,34.7753023 111.146983,34.1195935 C111.506654,33.0869969 111.684664,32.0519487 111.727395,31.0672711 C111.807919,29.1850613 111.340669,27.4943042 110.443102,26.2762727 C110.700562,24.8335795 110.886947,22.3453628 110.918727,21.1935262 L110.918727,21.1917431 C110.917868,9.48638189 101.773427,0 90.4952251,0 C79.2219624,0 70.0766622,9.48638189 70.0766622,21.1917431 L70.0766622,21.1935262 C70.0766622,22.607468 70.2864523,24.7787513 70.5531454,26.2796158 L70.5531454,26.2805074 C70.2226778,26.7280476 69.9617823,27.246909 69.7571457,27.8110147 C69.1129593,29.5820081 69.0826825,31.8317447 69.8509822,34.1195935 C70.0824599,34.8031622 70.377712,35.4376975 70.7141921,36.0296631 C70.7970774,36.9648617 70.9473875,38.9333255 70.9448108,41.3056454 C70.939872,44.2101993 70.7058176,47.6908944 69.8460435,50.5247958 C69.8460435,50.5247958 70.8913433,57.2833665 89.1488754,53.0509019 L90.8482392,53.0509019 C90.8482392,53.0509019 112.916564,56.481895 111.149345,50.5247958" id="Fill-1" stroke="none" fill="#3A3D41" fill-rule="evenodd"></path>
</svg>