<svg width="11px" height="23px" viewBox="92 6 11 23" version="1.1" xmlns="http://www.w3.org/2000/svg" xmlns:xlink="http://www.w3.org/1999/xlink">
    <path d="M100.810689,12.7191413 L100.619493,12.4460954 C99.9173886,11.4461637 99.3484165,9.89915083 99.3484165,8.99122372 L99.3484165,7.85254313 L99.8950378,7.85254313 L99.8950378,7.2960637 C99.8950378,6.68146308 99.4055081,6.18310483 98.8017953,6.18310483 L95.5220676,6.18310483 C94.9183548,6.18310483 94.4288251,6.68146308 94.4288251,7.2960637 L94.4288251,7.85254313 L94.9754464,7.85254313 L94.9754464,8.99122372 C94.9754464,9.89915083 94.4064743,11.4461637 93.7046126,12.4460954 L93.5134167,12.7191413 C92.811312,13.719073 92.24234,15.5267655 92.24234,16.7562141 L92.24234,26.2163645 C92.24234,27.445813 93.2213994,28.4422822 94.4288251,28.4422822 L99.8950378,28.4422822 C101.102706,28.4422822 102.081523,27.445813 102.081523,26.2163645 L102.081523,16.7562141 C102.081523,15.5267655 101.512551,13.719073 100.810689,12.7191413 L100.810689,12.7191413 Z M98.8017953,13.4173375 C98.8017953,15.2611393 97.3332061,16.7562141 95.5220676,16.7562141 L94.4288251,16.7562141 L94.4288251,26.2163645 C93.8251122,26.2163645 93.3355825,25.7180062 93.3355825,25.1034056 L93.3355825,16.5346116 L93.3435996,16.5346116 C93.4074936,15.5381424 93.8749155,14.1185016 94.4028302,13.3658941 L94.594755,13.0923535 C95.4348512,11.8953044 96.0686889,10.1321302 96.0686889,8.99122372 L96.0686889,7.85254313 L96.6153102,7.85254313 C96.6153102,8.46714376 97.1048399,8.965502 97.7085527,8.965502 L98.255174,8.965502 L98.255174,8.99122372 C98.255174,10.0604062 98.8122418,11.6759278 99.5736245,12.860858 L98.7527208,12.860858 C98.7826028,13.042394 98.8017953,13.2273925 98.8017953,13.4173375 L98.8017953,13.4173375 Z" id="Shape" stroke="none" fill="#6A6A6A" fill-rule="evenodd"></path>
</svg>