<svg width="107px" height="60px" viewBox="667 276 107 60" version="1.1" xmlns="http://www.w3.org/2000/svg" xmlns:xlink="http://www.w3.org/1999/xlink">
    <g id="Food-Icon" stroke="none" stroke-width="1" fill="none" fill-rule="evenodd" transform="translate(667.000000, 276.000000)">
        <path d="M28.1964706,28.9552941 C27.3917647,28.4082353 26.2923529,28.6129412 25.7435294,29.4194118 L24.3652941,31.44 C23.8164706,32.2447059 24.0247059,33.3441176 24.8294118,33.8929412 C25.1347059,34.0994118 25.4788235,34.2 25.8211765,34.2 C26.3858824,34.2 26.94,33.93 27.2823529,33.4288235 L28.6605882,31.4082353 C29.2094118,30.6035294 29.0011765,29.5041176 28.1964706,28.9552941" id="Shape" fill="#EC5623"></path>
        <path d="M22.0411765,35.0788235 L19.9570588,33.7923529 C19.1241176,33.2752941 18.0388235,33.54 17.5288235,34.3676471 C17.0170588,35.1970588 17.2747059,36.2823529 18.1023529,36.7941176 L20.1864706,38.0805882 C20.4758824,38.2605882 20.7970588,38.3435294 21.1111765,38.3435294 C21.7023529,38.3435294 22.2829412,38.0452941 22.6147059,37.5070588 C23.1264706,36.6758824 22.8705882,35.5905882 22.0411765,35.0788235" id="Shape" fill="#EC5623"></path>
        <path d="M32.8076471,34.8123529 L35.2482353,35.0011765 C35.2958824,35.0047059 35.34,35.0064706 35.3858824,35.0064706 C36.3,35.0064706 37.0711765,34.3023529 37.1435294,33.3776471 C37.2194118,32.4052941 36.4923529,31.5582353 35.5217647,31.4823529 L33.0811765,31.2917647 C32.1123529,31.1964706 31.2617647,31.9429412 31.1841176,32.9152941 C31.11,33.8876471 31.8370588,34.7347059 32.8076471,34.8123529" id="Shape" fill="#EC5623"></path>
        <path d="M42.0988235,35.5782353 L40.7205882,37.6005882 C40.17,38.4070588 40.3782353,39.5064706 41.1829412,40.0535294 C41.4882353,40.26 41.8341176,40.3605882 42.1764706,40.3605882 C42.7394118,40.3605882 43.2952941,40.0923529 43.6358824,39.5911765 L45.0141176,37.5670588 C45.5647059,36.7605882 45.3564706,35.6629412 44.5517647,35.1141176 C43.7452941,34.5688235 42.6494118,34.7717647 42.0988235,35.5782353" id="Shape" fill="#EC5623"></path>
        <path d="M39.7323529,30.6264706 L41.8164706,31.9129412 C42.1058824,32.0929412 42.4270588,32.1758824 42.7411765,32.1758824 C43.3323529,32.1758824 43.9111765,31.8776471 44.2447059,31.3394118 C44.7564706,30.5082353 44.4988235,29.4229412 43.6711765,28.9111765 L41.5870588,27.6247059 C40.7523529,27.1094118 39.6688235,27.3705882 39.1588235,28.1982353 C38.6470588,29.0294118 38.9047059,30.1147059 39.7323529,30.6264706" id="Shape" fill="#EC5623"></path>
        <path d="M81.5647059,38.3382353 C82.1294118,38.3382353 82.6835294,38.0682353 83.0258824,37.5670588 L84.4058824,35.5429412 C84.9547059,34.74 84.7464706,33.6405882 83.9417647,33.0917647 C83.1405882,32.5447059 82.0376471,32.7476471 81.4888235,33.5558824 L80.1088235,35.5782353 C79.56,36.3829412 79.7682353,37.4805882 80.5729412,38.0311765 C80.8764706,38.2376471 81.2223529,38.3382353 81.5647059,38.3382353" id="Shape" fill="#EC5623"></path>
        <path d="M74.6576471,31.5 L76.7417647,32.7864706 C77.0311765,32.9664706 77.3523529,33.0494118 77.6664706,33.0494118 C78.2576471,33.0494118 78.8364706,32.7511765 79.17,32.2129412 C79.6817647,31.3817647 79.4241176,30.2964706 78.5964706,29.7847059 L76.5123529,28.4982353 C75.6794118,27.9811765 74.5923529,28.2441176 74.0841176,29.0735294 C73.5723529,29.9029412 73.83,30.9882353 74.6576471,31.5" id="Shape" fill="#EC5623"></path>
        <path d="M49.6658824,30.6741176 L52.1082353,30.8629412 C52.1541176,30.8664706 52.2017647,30.8682353 52.2458824,30.8682353 C53.16,30.8682353 53.9311765,30.1658824 54.0035294,29.2394118 C54.0794118,28.2670588 53.3523529,27.42 52.38,27.3441176 L49.9376471,27.1552941 C48.9458824,27.0847059 48.1182353,27.8064706 48.0423529,28.7770588 C47.9664706,29.7494118 48.6935294,30.5982353 49.6658824,30.6741176" id="Shape" fill="#EC5623"></path>
        <path d="M51.4235294,34.7205882 C50.4882353,34.4647059 49.5158824,35.0241176 49.2635294,35.9682353 C49.0094118,36.9088235 49.5670588,37.8776471 50.5111765,38.1282353 L52.8741176,38.7635294 C53.0276471,38.8041176 53.1811765,38.8235294 53.3329412,38.8235294 C54.1129412,38.8235294 54.8241176,38.3047059 55.0358824,37.5158824 C55.29,36.5735294 54.7305882,35.6064706 53.7882353,35.3541176 L51.4235294,34.7205882" id="Shape" fill="#EC5623"></path>
        <path d="M60.7905882,36.57 C61.0288235,37.32 61.7223529,37.8 62.4723529,37.8 C62.6488235,37.8 62.8288235,37.7735294 63.0070588,37.7170588 L65.3417647,36.9758824 C66.27,36.6811765 66.7835294,35.6876471 66.4888235,34.7594118 C66.1958824,33.8329412 65.2111765,33.3141176 64.2723529,33.6123529 L61.9376471,34.3535294 C61.0094118,34.6482353 60.4958824,35.64 60.7905882,36.57" id="Shape" fill="#EC5623"></path>
        <path d="M58.6252941,33.5294118 C59.0752941,33.5294118 59.5252941,33.3582353 59.8694118,33.0158824 L61.6076471,31.2882353 C62.2976471,30.6035294 62.3011765,29.4847059 61.6147059,28.7929412 C60.9264706,28.1029412 59.8094118,28.0976471 59.1194118,28.7858824 L57.3811765,30.5135294 C56.6911765,31.2 56.6876471,32.3170588 57.3741176,33.0088235 C57.72,33.3547059 58.1735294,33.5294118 58.6252941,33.5294118" id="Shape" fill="#EC5623"></path>
        <path d="M71.0364706,36.3476471 C71.2464706,37.14 71.9611765,37.6623529 72.7411765,37.6623529 C72.8911765,37.6623529 73.0429412,37.6429412 73.1947059,37.6041176 C74.1352941,37.3552941 74.6982353,36.3882353 74.4494118,35.4458824 L73.8247059,33.0776471 C73.5758824,32.1335294 72.6052941,31.5723529 71.6664706,31.8229412 C70.7258824,32.0717647 70.1629412,33.0388235 70.4117647,33.9811765 L71.0364706,36.3476471" id="Shape" fill="#EC5623"></path>
        <path d="M65.1688235,28.0358824 L67.6111765,28.2264706 C67.6588235,28.23 67.7047059,28.2317647 67.7505882,28.2317647 C68.6629412,28.2317647 69.4358824,27.5294118 69.5082353,26.6047059 C69.5841176,25.6323529 68.8588235,24.7835294 67.8864706,24.7076471 L65.4441176,24.5152941 C64.4858824,24.4411765 63.6229412,25.1647059 63.5470588,26.1370588 C63.4711765,27.1094118 64.1982353,27.96 65.1688235,28.0358824" id="Shape" fill="#EC5623"></path>
        <path d="M42.9582353,13.3252941 C43.3888235,14.8305882 44.7864706,15.8823529 46.3552941,15.8823529 C46.6835294,15.8823529 47.0082353,15.8382353 47.3241176,15.7464706 L52.4135294,14.2888235 C53.3170588,14.0276471 54.0670588,13.4311765 54.5258824,12.6052941 C54.9847059,11.7811765 55.0941176,10.8282353 54.8347059,9.92294118 L53.3770588,4.83352941 C52.8564706,3.01411765 50.8394118,1.87941176 49.0111765,2.41235294 L43.9217647,3.87 C43.0182353,4.13117647 42.2682353,4.72764706 41.8094118,5.55176471 C41.3505882,6.37764706 41.2411765,7.33058824 41.5005882,8.23588235 L42.9582353,13.3252941" id="Shape" fill="#EC5623"></path>
        <path d="M28.5,21.1764706 C32.3929412,21.1764706 35.5588235,18.0105882 35.5588235,14.1176471 C35.5588235,10.2247059 32.3929412,7.05882353 28.5,7.05882353 C24.6070588,7.05882353 21.4411765,10.2247059 21.4411765,14.1176471 C21.4411765,18.0105882 24.6070588,21.1764706 28.5,21.1764706" id="Shape" fill="#EC5623"></path>
        <path d="M62.5270588,15.6317647 C62.9929412,16.9094118 64.2194118,17.7670588 65.58,17.7670588 C65.9594118,17.7670588 66.3370588,17.7 66.6952941,17.5694118 L68.8764706,16.7717647 C70.56,16.1576471 71.4282353,14.2888235 70.8158824,12.6035294 L66.9847059,2.13176471 C66.3864706,0.497647059 64.4488235,-0.402352941 62.8147059,0.197647059 L60.6352941,0.995294118 C59.82,1.29352941 59.1688235,1.89176471 58.8035294,2.67882353 C58.4364706,3.46764706 58.3994118,4.35 58.6976471,5.16529412 L62.5270588,15.6317647" id="Shape" fill="#EC5623"></path>
        <path d="M105.767647,42.4341176 C105.181765,41.2941176 104.020588,40.5882353 102.739412,40.5882353 L98.5711765,40.5882353 C98.1282353,39.69 97.4858824,38.9082353 96.6458824,38.34 C96.0705882,37.9482353 95.7617647,37.3658824 95.8217647,36.78 C95.8941176,36.06 95.8482353,35.4388235 95.6752941,34.8741176 C95.0841176,32.94 93.4341176,31.3941176 91.4717647,30.9352941 C91.2423529,30.8841176 90.9917647,30.8488235 90.7270588,30.8276471 C90.0282353,28.9023529 88.1911765,27.5188235 86.0329412,27.4976471 C85.7152941,25.5582353 84.4305882,23.9382353 82.6817647,23.1388235 C82.6711765,22.8494118 82.6394118,22.56 82.5582353,22.2758824 L81.1005882,17.1864706 C80.58,15.3670588 78.5611765,14.2429412 76.7347059,14.7652941 L71.6452941,16.2229412 C70.74,16.4841176 69.9917647,17.0805882 69.5329412,17.9047059 C69.1623529,18.5717647 69.0317647,19.3182353 69.1270588,20.0576471 C67.2670588,19.9641176 65.4441176,19.9005882 63.6617647,19.8723529 C63.0476471,16.6023529 60.1817647,14.1176471 56.7352941,14.1176471 C53.1529412,14.1176471 50.2182353,16.8088235 49.7682353,20.2711765 C48.1905882,20.3841176 46.6288235,20.5111765 45.0988235,20.6664706 L45.1164706,20.6470588 C45.6988235,20.0029412 45.9935294,19.1682353 45.9494118,18.3 C45.9035294,17.4352941 45.5258824,16.6394118 44.88,16.0552941 L43.1523529,14.4988235 C41.8729412,13.3464706 39.7164706,13.4611765 38.5623529,14.7370588 L31.3570588,22.7347059 C29.7935294,23.0505882 28.2776471,23.3876471 26.8058824,23.7405882 C26.8182353,23.3541176 26.7776471,22.9623529 26.6594118,22.5811765 C26.3788235,21.6794118 25.7629412,20.9417647 24.93,20.5058824 L20.2394118,18.0476471 C18.5664706,17.1688235 16.3482353,17.8711765 15.4764706,19.5370588 L13.0182353,24.2258824 C12.5841176,25.0605882 12.4976471,26.0152941 12.78,26.9170588 C13.0094118,27.6547059 13.4735294,28.2723529 14.0876471,28.7152941 C14.0770588,28.9252941 14.0858824,29.1388235 14.1176471,29.3523529 C14.2111765,29.9770588 13.8864706,30.5241176 13.5970588,30.8717647 C13.0288235,31.5529412 12.3088235,31.8458824 12.1058824,31.8529412 C11.3682353,31.8758824 10.6994118,32.1935294 10.1682353,32.7688235 C9.22764706,33.7888235 8.94352941,35.4105882 8.86411765,36.4764706 C7.64470588,37.1894118 5.66823529,38.5094118 5.57647059,40.5882353 L3.61058824,40.5882353 C2.32941176,40.5882353 1.17,41.2941176 0.584117647,42.4341176 C-0.00176470588,43.5723529 0.0970588235,44.9276471 0.841764706,45.9705882 L1.05352941,46.2688235 L10.3005882,51.8294118 C10.7188235,52.5564706 11.0047059,53.58 11.28,54.5770588 C11.9152941,56.8641176 12.7888235,60 16.1470588,60 L90.2647059,60 C93.6229412,60 94.4964706,56.8641176 95.1317647,54.5770588 C95.4088235,53.58 95.6929412,52.5547059 96.1111765,51.8276471 L105.298235,46.2670588 L105.51,45.9705882 C106.254706,44.9276471 106.353529,43.5723529 105.767647,42.4341176 L105.767647,42.4341176 L105.767647,42.4341176 Z M10.9376471,39.3547059 C11.5623529,38.9947059 12.4182353,38.5041176 12.3635294,37.3694118 C12.33,36.6547059 12.4905882,35.76 12.6705882,35.3364706 C13.9429412,35.1405882 15.3282353,34.3076471 16.3111765,33.1270588 C16.9588235,32.3488235 17.3823529,31.4752941 17.5694118,30.5947059 L19.1947059,31.4470588 C19.2088235,31.4541176 19.2247059,31.4576471 19.2388235,31.4647059 C19.4505882,31.5705882 19.6694118,31.6535294 19.8952941,31.7135294 C20.0558824,31.7576471 20.2182353,31.7752941 20.3841176,31.7964706 C20.4476471,31.8035294 20.5111765,31.8158824 20.5747059,31.8194118 C20.6611765,31.8264706 20.7441176,31.8511765 20.8288235,31.8511765 C20.9452941,31.8511765 21.0529412,31.8158824 21.1658824,31.8052941 C21.2047059,31.8 21.24,31.7947059 21.2770588,31.7894118 C21.9,31.71 22.4735294,31.4735294 22.9605882,31.1011765 C23.04,31.0411765 23.1176471,30.9794118 23.1917647,30.9141176 C23.2941176,30.8223529 23.3947059,30.7323529 23.4847059,30.6282353 C23.6664706,30.4252941 23.8323529,30.2064706 23.9629412,29.9594118 L25.0905882,27.8047059 C26.8217647,27.3423529 28.6464706,26.9064706 30.54,26.5005882 C30.5435294,26.5076471 30.5488235,26.5147059 30.5523529,26.5217647 C30.6247059,26.6841176 30.7164706,26.8341176 30.8135294,26.9823529 C30.84,27.0211765 30.8594118,27.0635294 30.8876471,27.1041176 C31.02,27.2841176 31.17,27.4552941 31.3394118,27.6088235 L33.0652941,29.1635294 C33.6635294,29.7035294 34.4347059,30 35.2394118,30 C36.1605882,30 37.0411765,29.6082353 37.6552941,28.9252941 L41.5376471,24.6194118 C44.3117647,24.2576471 47.2129412,23.97 50.1811765,23.7582353 C50.2923529,24.0405882 50.4352941,24.3017647 50.58,24.5629412 C50.6188235,24.6317647 50.6523529,24.7005882 50.6911765,24.7676471 C50.8394118,25.0147059 51,25.2494118 51.1764706,25.4752941 C51.2364706,25.5547059 51.3017647,25.6288235 51.3652941,25.7047059 C51.5488235,25.9217647 51.7341176,26.1335294 51.9423529,26.3276471 C51.9688235,26.3541176 52.0005882,26.3735294 52.0288235,26.3982353 C52.41,26.7423529 52.8282353,27.0370588 53.2782353,27.2929412 C53.4423529,27.3882353 53.6047059,27.4835294 53.7758824,27.5647059 C53.9505882,27.6458824 54.1288235,27.7111765 54.3105882,27.78 C54.5417647,27.8664706 54.78,27.9388235 55.0217647,28.0005882 C55.1717647,28.0394118 55.32,28.08 55.4735294,28.1082353 C55.8847059,28.1841176 56.3047059,28.2352941 56.7352941,28.2352941 C57.1711765,28.2352941 57.5947059,28.1841176 58.0094118,28.1064706 C58.1805882,28.0747059 58.3447059,28.0252941 58.5123529,27.9811765 C58.7347059,27.9211765 58.9552941,27.8576471 59.1705882,27.7764706 C59.3823529,27.6970588 59.5852941,27.6105882 59.7864706,27.5135294 C59.9241176,27.4464706 60.0547059,27.3723529 60.1852941,27.2964706 C61.3552941,26.6347059 62.3082353,25.6570588 62.9417647,24.4676471 C62.9611765,24.4305882 62.9823529,24.3952941 63.0017647,24.3582353 C63.1517647,24.0635294 63.2788235,23.76 63.3864706,23.4441176 C63.3935294,23.4229412 63.4058824,23.4035294 63.4129412,23.3823529 C65.5764706,23.4141176 67.8123529,23.4952941 70.0941176,23.6276471 L70.6817647,25.6782353 C70.7735294,25.9976471 70.9252941,26.2852941 71.1,26.5552941 C71.1564706,26.6470588 71.2111765,26.7335294 71.2764706,26.8182353 C71.4405882,27.0282353 71.6223529,27.2223529 71.8270588,27.39 C71.9611765,27.5011765 72.1058824,27.5894118 72.2541176,27.6794118 C72.3652941,27.7464706 72.48,27.8064706 72.5964706,27.8611765 C72.8029412,27.96 73.0111765,28.0394118 73.2352941,28.0958824 C73.4505882,28.1523529 73.6676471,28.1894118 73.89,28.2035294 C73.9552941,28.2070588 74.0135294,28.2352941 74.0788235,28.2352941 C74.1282353,28.2352941 74.1758824,28.2158824 74.2252941,28.2141176 C74.4847059,28.2070588 74.7441176,28.1752941 75.0017647,28.1047059 C75.0158824,28.1011765 75.0317647,28.1029412 75.0476471,28.0994118 L80.1370588,26.64 C80.4405882,26.5535294 80.7194118,26.4158824 80.9823529,26.2552941 C80.9876471,26.2535294 80.9911765,26.2535294 80.9964706,26.25 C81.9194118,26.5623529 82.5794118,27.4305882 82.5794118,28.4417647 C82.5794118,30.12 84.3352941,31.0270588 85.9835294,31.0270588 C86.8182353,31.0270588 87.4976471,31.7064706 87.4976471,32.5394118 C87.4976471,32.7211765 87.5541176,34.3058824 89.5341176,34.3129412 C89.7547059,34.3147059 90.4288235,34.3164706 90.6723529,34.3729412 C91.4188235,34.5476471 92.0735294,35.1652941 92.2994118,35.9029412 C92.3082353,35.9276471 92.3470588,36.0758824 92.31,36.4217647 C92.1529412,37.9552941 92.7317647,39.4747059 93.8488235,40.5882353 L70.3923529,40.5882353 L69.3582353,40.5070588 C69.1447059,40.4929412 68.94,40.53 68.7423529,40.5882353 L30.7870588,40.5882353 C30.9811765,40.3447059 31.1311765,40.0641176 31.1735294,39.7305882 L31.4735294,37.3005882 C31.5952941,36.3352941 30.9070588,35.4529412 29.94,35.3329412 C28.9729412,35.2076471 28.0923529,35.9011765 27.9723529,36.8664706 L27.6705882,39.2964706 C27.6105882,39.7764706 27.7517647,40.2335294 28.0252941,40.5882353 L9.20294118,40.5882353 C9.40764706,40.3447059 9.88411765,39.9564706 10.9376471,39.3547059 L10.9376471,39.3547059 L10.9376471,39.3547059 Z M25.0958824,52.9411765 L17.9117647,52.9411765 C16.9358824,52.9411765 16.1470588,52.1523529 16.1470588,51.1764706 C16.1470588,50.2005882 16.9358824,49.4117647 17.9117647,49.4117647 L25.0958824,49.4117647 C26.0717647,49.4117647 26.8605882,50.2005882 26.8605882,51.1764706 C26.8605882,52.1523529 26.0717647,52.9411765 25.0958824,52.9411765 L25.0958824,52.9411765 L25.0958824,52.9411765 Z M88.5,52.9411765 L33.7676471,52.9411765 C32.7935294,52.9411765 32.0029412,52.1523529 32.0029412,51.1764706 C32.0029412,50.2005882 32.7935294,49.4117647 33.7676471,49.4117647 L88.5,49.4117647 C89.4758824,49.4117647 90.2647059,50.2005882 90.2647059,51.1764706 C90.2647059,52.1523529 89.4758824,52.9411765 88.5,52.9411765 L88.5,52.9411765 L88.5,52.9411765 Z" id="Shape" fill="#EC5623"></path>
    </g>
</svg>