<svg width="36px" height="40px" viewBox="21 15 36 40" version="1.1" xmlns="http://www.w3.org/2000/svg" xmlns:xlink="http://www.w3.org/1999/xlink">
    <path d="M36.2274183,49.1260132 L36.2274183,53.2923166 C36.2274183,54.0941432 35.575333,54.7448448 34.7713686,54.7448448 C33.9674041,54.7448448 33.3157515,54.0941432 33.3157515,53.2923166 L33.3157515,48.7451779 C34.3806366,48.9524352 35.4139344,49.0646995 36.2274183,49.1260132 Z M25.7494853,22.8444928 L24.7668139,21.8639067 L22.4933859,21.8639067 L22.4881934,21.8639067 C22.2688124,21.8639067 22.0914036,21.6864427 22.0914036,21.4675272 C22.0914036,21.4014639 22.1074137,21.3392867 22.1364049,21.2848817 C22.2926111,20.8509367 22.7789707,20.174328 23.7231313,19.946345 L23.5967817,17.5814529 C23.5924546,17.2222069 23.5980798,16.2472341 24.5344518,16.2299626 C24.6884945,16.2273719 24.8343158,16.2411891 24.9736466,16.2921398 C25.0649472,16.330137 25.128122,16.3715884 25.2155282,16.4436967 C25.4145722,16.6069118 25.4098124,16.842667 25.5063055,16.8171916 C25.6023658,16.7917162 25.5521721,16.695428 25.5703457,16.5663239 C25.5802979,16.4968064 25.612318,16.3620891 25.7767456,16.2006012 C25.9615103,16.0326364 26.1986323,15.9652778 26.4370523,15.9652778 C27.1168306,15.9652778 27.2539979,16.3841102 27.3202016,16.5244407 C27.38554,16.7079498 27.3383752,16.8685742 27.4231852,16.8754827 C27.5222745,16.8836867 27.5075626,16.7766037 27.5677085,16.6608851 C27.6018921,16.5961172 27.6784807,16.4523324 27.9320454,16.3167516 C28.046712,16.2649373 28.1557535,16.2416208 28.2461887,16.2325533 C28.5438892,16.2018965 28.8095696,16.3046616 29.0112098,16.5080328 C29.3495845,16.8500074 29.3612675,17.3405163 29.3599694,17.4350774 C29.351748,18.1406158 29.0246236,18.6725762 28.583698,19.062479 C30.6316871,20.0767444 31.5771459,22.565559 32.4975078,24.9926283 C33.8423526,28.5397506 35.1127722,31.8908419 39.402602,31.8908419 C43.5042055,31.8908419 45.1125671,29.8536755 46.6681388,27.8838676 C48.0116855,26.1830624 49.4006661,24.4248297 52.2690625,24.4248297 C52.2993518,24.4248297 52.3292084,24.4287158 52.3586322,24.4334654 C52.4170473,24.4300111 52.4750297,24.4248297 52.5338775,24.4248297 C54.3378214,24.4248297 56.2646534,25.1251866 56.2646534,27.0911084 C56.2646534,28.0570138 55.8972875,28.6580599 55.0851016,29.063507 C54.9362514,29.1256842 54.8414892,29.168431 54.7077835,29.2120414 C54.4628729,29.29149 54.252146,29.21895 54.22878,29.3148065 C54.2093083,29.3942551 54.3148881,29.3972776 54.4308528,29.4577277 C54.4884025,29.4875209 54.6186465,29.5233591 54.8042766,29.6904603 C55.1595268,30.0311395 55.4390537,30.492287 55.4390537,31.0419506 C55.4390537,31.9923117 54.9639445,32.5108867 54.0595926,32.7673676 C53.9527147,32.7880933 53.8064606,32.8174548 53.4784708,32.8770412 C53.2253388,32.9223788 53.0280257,32.8394759 53.004227,32.9361959 C53.0037943,32.9387866 53.0050924,32.9405138 53.0046597,32.9431045 L53.0033616,32.9431045 L53.0037943,32.9435363 C52.9994672,32.9992367 53.1223552,33.0337796 53.2348583,33.0670271 C53.9808404,33.3977752 54.1141133,33.8412195 54.1141133,34.4366524 C54.1141133,35.3459938 53.576262,35.8662959 52.5152712,35.9876278 C52.0289116,38.8978657 50.9259485,41.4173371 49.2492196,43.3880086 C47.1795952,45.8198275 44.3631234,47.3189886 40.8573537,47.8734019 L40.8573537,53.2927483 C40.8573537,54.094575 40.2048357,54.7452766 39.4013039,54.7452766 C38.5977721,54.7452766 37.9456869,54.094575 37.9456869,53.2927483 L37.9456869,48.1134749 C37.8383762,48.1147703 37.7332291,48.1199517 37.625053,48.1199517 C28.8636576,48.1199517 24.1203538,43.2234981 22.6024273,38.6396576 C22.1896275,37.3814331 21.75,35.9090428 21.75,34.3572038 C21.7495673,26.642051 24.1225173,23.8518496 25.7494853,22.8444928 Z" id="chicken" stroke="none" fill="#6A6A6A" fill-rule="evenodd"></path>
</svg>