<svg width="33px" height="40px" viewBox="53 0 33 40" version="1.1" xmlns="http://www.w3.org/2000/svg" xmlns:xlink="http://www.w3.org/1999/xlink">
    <path d="M78.6863754,27.8934116 C76.7792027,32.2518799 73.1803978,36.9091876 68.8043654,36.9091876 C64.4322758,36.9091876 60.835278,32.2518799 58.9281053,27.8934116 C58.7611928,27.5115523 58.3396401,27.264621 57.9205516,27.264621 C56.9938257,27.264621 55.6539256,26.2526612 54.9961325,24.3748043 C54.2639188,22.2817832 54.8472912,20.4160437 55.8425236,20.0962448 C55.9857792,20.0502317 56.4316459,20.015026 56.7860065,19.7201167 C59.1372388,17.7652985 62.9113347,9.46100557 62.9113347,9.46100557 C69.1618473,17.9175837 76.1662591,19.2902794 81.4548891,20.0341845 C81.5388382,20.0456468 81.7121578,20.0757763 81.7717929,20.0962448 C82.7607824,20.4402784 83.3505619,22.2824382 82.6170339,24.3759506 C81.9630194,26.2526612 80.6231193,27.264621 79.669615,27.264621 C79.2518409,27.2857444 78.8552593,27.5064761 78.6863754,27.8934116 M85.0377584,37.1202581 C85.0377584,37.1202581 85.0377584,37.1176382 85.0359513,37.1169832 C84.3799653,35.0355882 84.2010601,32.4796528 84.1971173,30.3470047 C84.1951459,28.6098071 84.3081732,27.1680099 84.3735583,26.477814 C84.4686787,26.3166865 84.8613174,25.5492017 85.0359513,25.0674565 C85.311127,24.3088141 85.4473184,23.5483705 85.4800109,22.8249338 C85.5416174,21.4420858 85.1841354,20.199897 84.4974284,19.3050166 C84.6944049,18.2450788 84.8370034,16.4170012 84.8613174,15.5707539 L84.8613174,15.5694439 C84.8606603,6.9695867 77.8644627,0 69.2357751,0 C60.6108661,0 53.6140114,6.9695867 53.6140114,15.5694439 L53.6140114,15.5707539 C53.6140114,16.6095683 53.7745168,18.2047969 53.9785575,19.3074729 L53.9785575,19.3081278 C53.7257245,19.6369329 53.5261194,20.0181372 53.3695568,20.4325822 C52.8767049,21.7337202 52.8535408,23.3865879 53.4413489,25.0674565 C53.618447,25.5696702 53.8443375,26.0358594 54.1017705,26.4707729 C54.1651841,27.1578576 54.2801829,28.6040759 54.2782115,30.3470047 C54.274433,32.4809627 54.0953634,35.0382081 53.4375704,37.1202581 C53.4375704,37.1202581 54.2373048,42.0857387 68.2057146,38.9761728 L69.505858,38.9761728 C69.505858,38.9761728 86.3898156,41.4969025 85.0377584,37.1202581" id="Fill-1" stroke="none" fill="#EC5623" fill-rule="evenodd"></path>
</svg>