<svg width="60px" height="60px" viewBox="690 276 60 60" version="1.1" xmlns="http://www.w3.org/2000/svg" xmlns:xlink="http://www.w3.org/1999/xlink">
    <path d="M720,336 C736.519824,336 750,322.519824 750,306 C750,289.480176 736.519824,276 720,276 C703.480176,276 690,289.480176 690,306 C690,322.519824 703.480176,336 720,336 L720,336 Z M720.198238,281.286344 C733.942731,281.286344 745.110132,292.453744 745.110132,306.198238 C745.110132,319.942731 733.942731,331.110132 720.198238,331.110132 L720.198238,331.110132 C706.453744,331.110132 695.286344,319.942731 695.286344,306.198238 C695.286344,292.453744 706.453744,281.286344 720.198238,281.286344 L720.198238,281.286344 Z M720.066079,325.559471 C730.837004,325.559471 739.559471,316.837004 739.559471,306.066079 C739.559471,295.295154 730.837004,286.572687 720.066079,286.572687 C709.295154,286.572687 700.572687,295.295154 700.572687,306.066079 C700.572687,316.837004 709.295154,325.559471 720.066079,325.559471 Z M722.565811,316.456124 C722.269403,316.752532 721.851066,316.927011 721.432817,316.927219 L718.295943,316.928781 C717.877693,316.92899 717.45953,316.754927 717.163417,316.458814 C716.867305,316.162702 716.71066,315.761957 716.710869,315.343707 L716.71401,309.035106 L710.405409,309.038247 C709.987159,309.038456 709.586414,308.881811 709.290301,308.585699 C708.994189,308.289586 708.820126,307.871423 708.820335,307.453173 L708.821897,304.316299 C708.822105,303.898049 708.996584,303.479713 709.292992,303.183305 C709.5894,302.886897 709.9903,302.729854 710.40855,302.729646 L716.717152,302.726504 L716.720293,296.417902 C716.720502,295.999653 716.877545,295.598752 717.173953,295.302344 C717.470361,295.005936 717.888697,294.831457 718.306947,294.831249 L721.443821,294.829687 C721.862071,294.829478 722.280234,295.003541 722.576347,295.299654 C722.872459,295.595766 723.029103,295.996511 723.028895,296.414761 L723.025754,302.723362 L729.334355,302.720221 C729.752605,302.720013 730.15335,302.876657 730.449462,303.172769 C730.745575,303.468882 730.919638,303.887045 730.919429,304.305295 L730.917867,307.442169 C730.917659,307.860419 730.74318,308.278755 730.446772,308.575163 C730.150364,308.871571 729.749463,309.028614 729.331214,309.028822 L723.022612,309.031964 L723.01947,315.340566 C723.019262,315.758815 722.862219,316.159716 722.565811,316.456124 Z" id="Shape-Copy" stroke="none" fill="#EC5623" fill-rule="evenodd"></path>
</svg>