<svg width="45px" height="54px" viewBox="0 -1 45 54" version="1.1" xmlns="http://www.w3.org/2000/svg" xmlns:xlink="http://www.w3.org/1999/xlink">
    <g id="Group" stroke="none" stroke-width="1" fill="none" fill-rule="evenodd">
        <path d="M29.4009012,24.4615385 L29,27 L16,27 L15.5990988,24.4615385 L7.40188689,24.4615385 L4.85635788,7.90817942 C4.18472572,3.54061253 7.21302001,-4.54747351e-13 11.6407177,-4.54747351e-13 L33.2560689,-4.51194637e-13 C37.6745995,-4.51194637e-13 40.7135709,3.53079339 40.0404287,7.90817942 L37.4948997,24.4615385 L29.4009012,24.4615385 Z M29.4009012,24.4615385 L32,8.0043335 L13,8.0043335 L15.5990988,24.4615385 L29.4009012,24.4615385 Z" id="Combined-Shape" fill="#EC5623"></path>
        <path d="M22.5,52.8233333 C34.9264069,52.8233333 45,48.745214 45,36.305 C45,23.864786 34.9264069,13.78 22.5,13.78 C10.0735931,13.78 0,23.864786 0,36.305 C0,48.745214 10.0735931,52.8233333 22.5,52.8233333 Z" id="Oval-46" fill="#EC5623"></path>
        <text id="5-copy" font-family="LeagueSpartan-Bold, League Spartan" font-size="21.1764706" font-weight="bold" fill="#FFFFFF">
            <tspan x="11" y="42.55">10</tspan>
        </text>
    </g>
</svg>