<svg width="21px" height="16px" viewBox="46 9 21 16" version="1.1" xmlns="http://www.w3.org/2000/svg" xmlns:xlink="http://www.w3.org/1999/xlink">
    <path d="M56.5559029,14.1770262 C56.7381726,14.8871824 56.9432261,15.5973387 57.1482796,16.3074949 C57.5128192,16.1929536 57.8773587,16.1013205 58.2418983,15.9867792 C58.424168,15.0933568 58.5380866,14.245751 58.5380866,13.4439617 C57.8773587,13.6959526 57.2166308,13.9250353 56.5559029,14.1770262 Z M57.3989006,11.4280343 C56.8976587,11.2905847 56.3736331,11.2218599 55.8723912,11.2676764 C55.9179587,11.5425756 55.9863098,11.8174748 56.054661,12.0694657 C56.4875517,11.8632913 56.9432261,11.6571169 57.3989006,11.4280343 Z M57.854575,11.5883921 C57.284982,11.8861996 56.7153889,12.1610988 56.1230122,12.435998 C56.2369308,12.9170716 56.3508494,13.3752369 56.464768,13.8563105 C57.1482796,13.6043195 57.854575,13.3523286 58.5380866,13.0774294 C58.5153029,12.6421724 58.4697355,12.2298236 58.3786006,11.8632913 C58.2191145,11.74875 58.0368448,11.6571169 57.854575,11.5883921 Z M57.2394145,16.6511189 C57.3761168,17.0634677 57.4900354,17.4987248 57.6267378,17.9110736 C57.6495215,17.9110736 57.6723052,17.8881653 57.6950889,17.8881653 C57.854575,17.3841835 58.014061,16.8802016 58.1279796,16.399128 C57.8317913,16.4678528 57.5356029,16.5594859 57.2394145,16.6511189 Z M55.7129052,12.2298236 C55.644554,11.9320161 55.5762028,11.6113004 55.5078517,11.3134929 C54.9838261,11.3822177 54.4825842,11.5654839 54.0041261,11.7945665 C54.0724772,12.1610988 54.1408284,12.527631 54.2091796,12.871255 C54.7332052,12.6650806 55.234447,12.4589062 55.7129052,12.2298236 Z M54.2775307,13.2377873 C54.3686656,13.6959526 54.4825842,14.1541179 54.5737191,14.6351915 C55.0066098,14.4290171 55.4167168,14.245751 55.8496075,14.0853931 C55.9407424,14.0624849 56.0318773,14.0166683 56.1230122,13.9937601 C56.0090936,13.5355947 55.8951749,13.0774294 55.7812563,12.5963558 C55.3027982,12.8025302 54.8015563,13.0316129 54.2775307,13.2377873 Z M55.6673377,14.5206502 C55.3255819,14.6580998 55.0066098,14.7955494 54.664854,14.9559072 C54.82434,15.5973387 54.9838261,16.2616784 55.1433121,16.9031099 C55.3255819,16.8572933 55.5078517,16.7885685 55.6673377,16.742752 C56.054661,16.6282107 56.4192005,16.5136693 56.7837401,16.4220363 C56.5786866,15.7347883 56.3736331,15.024632 56.1913633,14.3144758 C56.0318773,14.3832006 55.8496075,14.4519254 55.6673377,14.5206502 Z M55.4622842,17.1551008 C55.3939331,17.1780091 55.3255819,17.2009173 55.234447,17.2238256 C55.3711494,17.7278074 55.485068,18.208881 55.6217703,18.7128629 C55.8268238,18.6441381 56.0090936,18.5754133 56.214147,18.4837802 C56.5786866,18.3463306 56.9432261,18.1859728 57.3077657,18.0256149 C57.1710633,17.5903578 57.034361,17.1551008 56.8976587,16.7198437 C56.4192005,16.8802016 55.9407424,17.0176512 55.4622842,17.1551008 Z M56.6014703,18.7128629 C56.3052819,18.8274042 56.0090936,18.9419455 55.7129052,19.0564869 C55.8496075,19.583377 56.0090936,20.1102671 56.1457959,20.6371572 C56.3280657,20.5684324 56.5103354,20.4997076 56.6698215,20.4309828 C56.9660099,19.8124597 57.2166308,19.1939365 57.4672517,18.552505 C57.444468,18.5066885 57.444468,18.4379637 57.4216843,18.3921472 C57.1482796,18.4837802 56.874875,18.5983216 56.6014703,18.7128629 Z M51.4979167,14.245751 C51.2928632,14.5206502 51.1105934,14.7726411 50.9283237,14.8871824 C51.065026,15.2995312 51.1561609,15.71188 51.2472958,16.1242288 C51.7485376,15.963871 52.2497795,15.7347883 52.7282377,15.5286139 C52.5687516,15.024632 52.3864818,14.5206502 52.1814283,14.0395766 C51.9535911,14.0853931 51.7257539,14.1541179 51.4979167,14.245751 Z M51.3156469,16.4449445 C51.4067818,16.9260181 51.4979167,17.43 51.5890516,17.9110736 C52.1358609,17.7965322 52.6826702,17.6590826 53.2294795,17.4987248 C53.1155609,16.9260181 52.9788586,16.3762197 52.8193725,15.8264214 C52.3181307,16.055504 51.8168888,16.2616784 51.3156469,16.4449445 Z M51.634619,18.2546976 C51.7257539,18.8274042 51.7941051,19.3772026 51.88524,19.9499093 C52.454833,19.7666431 53.0472098,19.583377 53.6168028,19.4001109 C53.5028842,18.8732207 53.4117493,18.3463306 53.2978307,17.8423488 C52.7510214,17.9797984 52.1814283,18.1401562 51.634619,18.2546976 Z M53.685154,19.7208266 C53.0927772,19.9040927 52.5231842,20.0873589 51.9308074,20.270625 C51.9535911,20.4309828 51.9763749,20.5913407 51.9991586,20.7516986 C52.0675097,21.2556804 52.1586446,21.736754 52.2725632,22.2407359 C52.9105074,22.0574697 53.5028842,21.7825705 54.095261,21.5076714 C53.9813423,21.0265978 53.8674237,20.5226159 53.7535051,20.0415423 C53.7307214,19.927001 53.7079377,19.8353679 53.685154,19.7208266 Z M52.3409144,22.5843599 C52.4092656,22.8821673 52.4776167,23.1570665 52.5459679,23.454874 C52.7738051,23.5694153 53.024426,23.6839566 53.275047,23.7526814 C53.7535051,23.890131 54.2091796,23.7526814 54.6192865,23.454874 C54.4598005,22.9279839 54.3230982,22.4010937 54.2091796,21.8742036 C53.5712354,22.1491028 52.9788586,22.424002 52.3409144,22.5843599 Z M50.0397585,18.4379637 C50.085326,19.1252117 50.1764609,19.7895514 50.3815144,20.4309828 C50.7688376,20.2935332 51.1789446,20.1789919 51.5662679,20.0415423 C51.475133,19.4688357 51.4067818,18.8732207 51.3156469,18.3005141 C50.8827562,18.3692389 50.4498655,18.4150554 50.0397585,18.4379637 Z M50.1536771,16.399128 C50.4042981,16.3533115 50.654919,16.2845867 50.9055399,16.2158619 C50.8144051,15.7806048 50.7004865,15.3453478 50.5637841,14.932999 C49.7891376,14.7726411 48.855005,13.1690625 48.6043841,12.4130897 C48.285412,11.2905847 48.7410864,10.1680796 48.3765469,9.27465725 C47.6702515,9.38919858 47.2829282,10.3284375 46.7361189,10.8095111 C47.1462259,13.0774294 48.285412,14.932999 50.1536771,16.399128 Z M50.1081097,16.7656603 C50.0397585,17.2009173 50.0169748,17.6361744 50.0169748,18.0943397 C50.4270818,18.0943397 50.8371888,18.0485232 51.2472958,17.9797984 C51.1789446,17.4987248 51.0878097,17.0176512 50.9966748,16.5594859 C50.7004865,16.6282107 50.4042981,16.6969355 50.1081097,16.7656603 Z M51.5890516,20.3851663 C51.2017283,20.4997076 50.8371888,20.6371572 50.4726492,20.7516986 C50.6777027,21.3702218 50.9738911,21.9429284 51.3612144,22.424002 C51.5662679,22.4010937 51.7485376,22.3781855 51.9308074,22.3323689 C51.8624562,21.9429284 51.7713214,21.5534879 51.7257539,21.1640474 C51.6574028,20.9120564 51.634619,20.6371572 51.5890516,20.3851663 Z M53.1383446,15.6660635 C53.2978307,16.2387701 53.434533,16.8114768 53.5484516,17.3841835 C53.9813423,17.2467339 54.3914493,17.1092843 54.8015563,16.9947429 C54.6420703,16.3533115 54.4825842,15.7347883 54.3230982,15.0933568 C53.9357749,15.276623 53.5484516,15.4827974 53.1383446,15.6660635 Z M53.8902075,13.0087046 C53.8218563,12.6650806 53.7535051,12.3214566 53.685154,11.9778326 C53.2066958,12.2527318 52.7510214,12.6192641 52.3636981,13.0316129 C52.295347,13.1003377 52.2497795,13.1690625 52.1814283,13.2377873 C52.2497795,13.3523286 52.295347,13.4668699 52.3636981,13.5814113 C52.86494,13.3981451 53.3889656,13.214879 53.8902075,13.0087046 Z M52.5004004,13.902127 C52.7054539,14.3832006 52.8877237,14.8642742 53.0472098,15.3453478 C53.4573167,15.1620816 53.8674237,14.9559072 54.2775307,14.7497328 C54.1636121,14.2915675 54.0724772,13.8104939 53.9813423,13.3294203 C53.4801005,13.558503 53.0016423,13.7417691 52.5004004,13.902127 Z M53.6168028,17.7278074 C53.7307214,18.2546976 53.8218563,18.7586794 53.9357749,19.2855695 C54.3914493,19.1481199 54.8471238,18.9877621 55.3027982,18.8274042 C55.1660959,18.3234224 55.0293935,17.8194405 54.8926912,17.3383669 C54.4598005,17.4529083 54.0496935,17.5903578 53.6168028,17.7278074 Z M54.0041261,19.6291935 C54.0041261,19.6521018 54.0041261,19.6750101 54.0269098,19.6750101 C54.1636121,20.2248085 54.2775307,20.7975151 54.4142331,21.3473135 C54.6876377,21.2098639 54.9610424,21.0953226 55.2572307,20.9807812 C55.4395005,20.9120564 55.644554,20.8204234 55.8268238,20.7516986 C55.6901215,20.2248085 55.5306354,19.6979183 55.3939331,19.1481199 C54.9382586,19.3084778 54.4825842,19.4688357 54.0041261,19.6291935 Z M55.1433121,21.39313 C54.9154749,21.4847631 54.7104214,21.5993044 54.4825842,21.6909375 C54.5965028,22.1949193 54.7332052,22.6989012 54.8699075,23.202883 C55.3255819,22.7905343 55.7129052,22.1949193 56.0318773,21.6222127 C55.9863098,21.4389466 55.9407424,21.2556804 55.8723912,21.0724143 C55.6673377,21.1869556 55.3939331,21.2785887 55.1433121,21.39313 Z M64.0517472,23.7068649 C64.9175286,22.7905343 65.1225821,21.5534879 66.1706333,20.957873 C66.193417,20.8891482 66.193417,20.8433316 66.1706333,20.705882 C66.1022822,20.5455242 66.033931,20.3851663 65.9883635,20.2248085 C65.6693914,19.2855695 65.9883635,17.8194405 65.6466077,16.7656603 C64.7352589,13.9479435 61.86451,13.8104939 59.0165448,12.8025302 C58.9709773,14.6122833 58.674789,16.4220363 58.1051959,18.1859728 C57.5356029,19.9957258 56.6926052,21.6909375 55.6217703,23.2257913 C55.5989866,23.2945161 55.5534191,23.3403326 55.5306354,23.4090574 L55.7812563,23.4777822 C58.6520052,24.2795716 61.9100774,25.6540675 64.0061798,23.7755897 C64.0061798,23.7526814 64.0289635,23.7297732 64.0517472,23.7068649 Z" id="acorn" stroke="none" fill="#6A6A6A" fill-rule="evenodd"></path>
</svg>