<svg width="53px" height="40px" viewBox="21 809 53 40" version="1.1" xmlns="http://www.w3.org/2000/svg" xmlns:xlink="http://www.w3.org/1999/xlink">
    <path d="M53.2156761,839.391666 C52.8051723,838.322872 50.7515003,839.55614 49.7655994,838.980769 C48.9146112,838.483883 47.9448537,838.538708 47.6946309,838.562947 C47.4444081,838.538708 46.4746506,838.483883 45.6236624,838.980769 C44.6377615,839.55614 42.5840895,838.322872 42.1735857,839.391666 C41.763082,840.46046 41.901454,843.667418 43.8450049,844.078315 C45.7407021,844.479401 45.8698494,845.035728 47.6294807,845.062275 L47.6294807,845.064583 C47.6525427,845.064583 47.6721455,845.063429 47.6946309,845.063429 C47.7171164,845.063429 47.7367191,845.064583 47.7597811,845.064583 L47.7597811,845.062275 C49.5194125,845.035728 49.6485597,844.479401 51.5442569,844.078315 C53.4872313,843.666841 53.6261799,840.46046 53.2156761,839.391666 L53.2156761,839.391666 Z M73.123251,816.282173 C72.2083604,815.590227 70.7279326,814.611461 69.0589924,814.052826 C66.9179064,813.336065 63.5171885,814.997543 62.0730796,815.795099 C61.6983607,816.002279 61.2314034,815.873008 61.0169489,815.501931 C60.2859588,814.237499 58.4953791,811.564937 55.8377575,810.280884 C55.8377575,810.280884 54.1636289,809.230558 52.0040952,809.412345 C49.8601268,809.592401 49.8278433,810.226637 47.7911021,810.23587 C47.7559362,810.23587 47.7259586,810.234139 47.6919457,810.233562 C47.6579328,810.234139 47.6279552,810.23587 47.5927893,810.23587 C45.5554716,810.226637 45.5237646,809.592978 43.3797962,809.412345 C41.2202625,809.231135 39.5461339,810.280884 39.5461339,810.280884 C36.8885123,811.564937 35.0979326,814.237499 34.3669425,815.501931 C34.152488,815.873008 33.6855307,816.002279 33.3108118,815.795099 C31.8667029,814.997543 28.465985,813.335488 26.324899,814.052826 C24.6559588,814.612039 23.175531,815.590804 22.2606404,816.282173 C21.6945267,816.710383 21.5734637,817.529869 22.0271617,818.076385 C25.4169263,822.159385 31.0036965,822.135724 33.1338292,821.957399 C33.5800329,821.919888 33.9610932,822.268457 33.9749289,822.716289 C34.064285,825.63008 35.7603202,828.255319 38.3960352,831.926268 C41.2877119,835.954443 39.5276862,836.457677 40.1560609,842.625171 C40.7400458,848.352913 46.7176766,848.170549 47.5927893,848.170549 C47.6204609,848.170549 47.6538973,848.170549 47.6919457,848.171126 C47.7299941,848.171126 47.7634305,848.170549 47.7911021,848.170549 C48.6662148,848.170549 54.644422,848.352913 55.2278305,842.625171 C55.8567817,836.457677 54.0961795,835.953866 56.9878562,831.926268 C59.6235712,828.255319 61.3190299,825.63008 61.4089625,822.716289 C61.4227982,822.26788 61.8038585,821.919888 62.2500622,821.957399 C64.3801949,822.135147 69.9669651,822.158808 73.3567297,818.076385 C73.8104277,817.530446 73.6893647,816.710383 73.123251,816.282173 L73.123251,816.282173 Z M51.0011466,828.307835 C49.5061518,831.423034 50.3271593,835.954443 52.1807684,837.087295 C54.0343774,838.220148 54.1796681,839.36685 54.1796681,839.36685 C54.4748618,840.717847 54.4114413,844.355901 52.1807684,844.827971 C50.0042912,845.288499 49.8561178,845.927351 47.8353092,845.957938 L47.8353092,845.960823 C47.8203189,845.960823 47.8070582,845.960246 47.7937976,845.960246 C47.7799604,845.960823 47.7666997,845.960823 47.7522859,845.960823 L47.7522859,845.957938 C47.7321067,845.957361 47.7148102,845.956207 47.6952075,845.95563 C47.6756048,845.956207 47.6583082,845.957361 47.638129,845.957938 L47.638129,845.960823 C47.6231387,845.960823 47.609878,845.960246 47.5966174,845.960246 C47.5827802,845.960823 47.5695195,845.960823 47.5551058,845.960823 L47.5551058,845.957938 C45.5348737,845.927351 45.3867003,845.288499 43.2096465,844.827971 C40.9789736,844.355901 40.9155531,840.717847 41.2107468,839.36685 C41.2107468,839.36685 41.3560375,838.220148 43.2096465,837.087295 C45.0632556,835.954443 45.8848397,831.423034 44.3892683,828.307835 C43.0263036,825.467914 40.0899331,818.709466 39.6148557,812.170895 C39.5629662,810.253183 41.132336,810.309162 41.4396373,810.338595 C42.2416187,810.430931 43.1750535,810.630031 43.9839535,811.046699 C45.7032264,811.932552 47.3302512,811.958521 47.5960408,811.956213 C47.6185263,811.956213 47.6542724,811.956213 47.6952075,811.955636 C47.7361425,811.956213 47.7718886,811.95679 47.7943741,811.956213 C48.0607403,811.958521 49.6871886,811.932552 51.4064614,811.046699 C52.2153614,810.630031 53.1487963,810.430931 53.9507777,810.338595 C54.2580789,810.309162 55.8274487,810.253761 55.7755592,812.170895 C55.3004818,818.708889 52.3641114,825.467914 51.0011466,828.307835 L51.0011466,828.307835 Z" id="cow" stroke="none" fill="#6A6A6A" fill-rule="evenodd"></path>
</svg>