<svg width="46px" height="55px" viewBox="67 0 46 55" version="1.1" xmlns="http://www.w3.org/2000/svg" xmlns:xlink="http://www.w3.org/1999/xlink">
    <path d="M86.2001524,3.5194082 L86.0440862,3.69359628 C82.7806865,2.1304542 78.9728642,2.50057227 76.0387232,4.66869559 C72.7454128,7.101514 70.8716535,11.1336267 71.0733094,15.3520626 L71.4235538,23.7426695 C71.0069752,23.7426695 70.5279219,24.223014 70.6347802,24.8871534 C69.5073406,25.6263783 68.6459613,26.8623805 68.2421672,28.4616749 C67.7826523,30.2796523 67.9015714,32.4007524 68.5779387,34.4300815 C69.6416975,37.6314511 71.9083962,39.9851391 74.3740974,40.5122539 C75.5975407,43.2676616 77.2508293,46.0266086 79.2275874,48.3719538 C79.2275874,48.3719538 89.9151069,62.0357319 101.08964,48.3709425 C103.029492,45.9987992 104.713897,43.2780269 105.937823,40.5274227 C108.366136,40.0288757 110.664675,37.6617886 111.740253,34.4300815 C112.415656,32.3987299 112.53361,30.2796523 112.074336,28.4616749 C111.670301,26.860358 110.809887,25.6263783 109.683171,24.8871534 C109.743233,24.4684953 109.600916,23.8132043 108.890779,23.7492426 C108.830716,23.281286 108.770895,22.8140878 108.685505,22.3562436 L109.111249,19.0484398 C110.288862,9.89029296 104.209275,1.44255033 95.4787343,0.115282677 C94.9692879,0.0379219331 94.4593591,0 93.9523248,0 C91.037481,0 88.2239475,1.2574913 86.2001524,3.5194082 L86.2001524,3.5194082 Z M76.7476545,38.4399467 C76.5110224,37.8703593 75.9135325,37.5030221 75.3215905,37.5030221 C74.0759555,37.5030221 72.2740784,36.0662865 71.3893012,33.4034084 C70.9136249,31.9752684 70.8154504,30.4654698 71.1205875,29.2618276 C71.2674876,28.6806108 71.6425771,27.6587411 72.5092631,27.3429778 C72.5903114,27.3123875 72.7326284,27.2959546 72.873498,27.2810387 C73.1993797,27.2466561 73.4215388,26.9855004 73.7131679,26.8767909 C74.3731326,20.6355991 78.4532868,13.1733211 83.2155974,10.5544324 C82.5920563,18.9141962 95.8142645,17.7383634 95.8142645,17.7383634 C99.8758452,17.3454922 102.657297,17.9972438 104.566997,18.977905 C105.295226,20.7079036 106.395167,24.8911984 106.605024,26.8785606 L106.662675,26.9301344 C106.891347,27.1450253 107.117124,27.2476674 107.443006,27.2810387 C107.532014,27.2893815 107.717991,27.3096065 107.810376,27.3429778 C108.675615,27.6587411 109.050463,28.6806108 109.197605,29.2618276 C109.501777,30.4654698 109.403602,31.9752684 108.928891,33.4034084 C108.041943,36.0662865 106.241995,37.5030221 104.963796,37.5030221 L104.963073,37.5030221 C104.320234,37.5381631 103.811029,37.8615108 103.570296,38.4399467 C100.979646,44.6690034 96.0957626,51.3240499 90.1589754,51.3240499 C84.2214646,51.3240499 79.3385464,44.6690034 76.7476545,38.4399467 L76.7476545,38.4399467 Z" id="male" stroke="none" fill="#919294" fill-rule="evenodd"></path>
</svg>