<svg width="63px" height="40px" viewBox="129 162 63 40" version="1.1" xmlns="http://www.w3.org/2000/svg" xmlns:xlink="http://www.w3.org/1999/xlink">
    <g id="team" stroke="none" stroke-width="1" fill="none" fill-rule="evenodd" transform="translate(129.000000, 162.000000)">
        <path d="M15.7965517,28.4468966 C17.7206897,26.1193103 19.3965517,23.3262069 19.3965517,19.7882759 C19.3965517,15.5055172 16.6034483,12.5572414 12.4137931,12.5572414 C7.9137931,12.5572414 5.43103448,16.1572414 5.43103448,19.7882759 C5.43103448,22.9848276 6.67241379,26.5227586 9.03103448,28.2606897 C9,28.9744828 8.75172414,29.7503448 7.44827586,30.402069 L1.14827586,33.7848276 C0,36.0193103 0,39.6503448 0,39.6503448 L12.1655172,39.6503448 C12.1655172,39.6503448 11.7310345,33.3503448 15.7965517,28.4468966 L15.7965517,28.4468966 Z M7.66551724,19.7882759 C7.66551724,18.2986207 8.31724138,16.8089655 9.49655172,15.8468966 C12.3206897,18.7331034 14.337931,18.64 17.037931,18.4537931 C17.1,18.8572414 17.162069,19.3227586 17.162069,19.7882759 C17.162069,23.9468966 15.7034483,27.0193103 12.4137931,27.0193103 C9.7137931,27.0193103 7.66551724,23.5124138 7.66551724,19.7882759 L7.66551724,19.7882759 Z" id="Shape" fill="#EC5623"></path>
        <path d="M34.137931,14.8227586 C35.0689655,14.8227586 35.6896552,14.202069 35.6896552,13.2710345 C35.6896552,12.34 35.0689655,11.7193103 34.137931,11.7193103 C33.2068966,11.7193103 32.5862069,12.34 32.5862069,13.2710345 C32.5862069,14.202069 33.2068966,14.8227586 34.137931,14.8227586 L34.137931,14.8227586 Z" id="Shape" fill="#EC5623"></path>
        <path d="M14.6793103,21.5882759 C15.362069,21.5882759 15.7965517,21.1227586 15.7965517,20.4710345 C15.7965517,19.7882759 15.362069,19.3227586 14.6793103,19.3227586 C13.9965517,19.3227586 13.562069,19.7882759 13.562069,20.4710345 C13.562069,21.1227586 13.9965517,21.5882759 14.6793103,21.5882759 L14.6793103,21.5882759 Z" id="Shape" fill="#EC5623"></path>
        <path d="M10.1482759,19.3227586 C9.55862069,19.3227586 9.03103448,19.8193103 9.03103448,20.4710345 C9.03103448,21.0606897 9.55862069,21.5882759 10.1482759,21.5882759 C10.737931,21.5882759 11.2965517,21.1227586 11.2965517,20.4710345 C11.2965517,19.8193103 10.8,19.3227586 10.1482759,19.3227586 L10.1482759,19.3227586 Z" id="Shape" fill="#EC5623"></path>
        <path d="M47.3896552,19.3227586 C46.8,19.3227586 46.2724138,19.8193103 46.2724138,20.4710345 C46.2724138,21.0606897 46.8,21.5882759 47.3896552,21.5882759 C47.9793103,21.5882759 48.537931,21.1227586 48.537931,20.4710345 C48.537931,19.8193103 48.0413793,19.3227586 47.3896552,19.3227586 L47.3896552,19.3227586 Z" id="Shape" fill="#EC5623"></path>
        <path d="M37.862069,26.9262069 C36.3124138,26.1510345 35.8510345,25.2558621 35.7227586,24.3896552 C39.2351724,22.1289655 40.6551724,17.2344828 40.6551724,12.34 C40.6551724,12.037931 40.6441379,11.7413793 40.6241379,11.4496552 C41.0531034,11.5337931 41.4772414,11.6234483 41.8965517,11.7193103 L41.8965517,8.61586207 C41.2965517,8.47862069 40.6862069,8.35448276 40.0675862,8.24137931 L40.0344828,7.99517241 C38.6689655,-2.18413793 23.4,-2.21517241 22.0344828,7.99517241 L22.0013793,8.24137931 C21.3827586,8.35448276 20.7724138,8.47862069 20.1724138,8.61586207 L20.1724138,11.7193103 C20.5937931,11.6234483 21.02,11.5331034 21.4503448,11.4489655 C21.4262069,11.7455172 21.4137931,12.0427586 21.4137931,12.34 C21.4137931,16.7572414 23.1427586,21.6462069 26.377931,24.0986207 C26.3082759,25.0524138 25.9317241,26.0641379 24.2068966,26.9262069 L15.5172414,31.5813793 C13.9655172,34.6848276 13.9655172,39.6503448 13.9655172,39.6503448 L17.0689655,39.6503448 L26.3793103,39.6503448 L26.9427586,30.6324138 C27.737931,31.1186207 28.5517241,31.46 29.3731034,31.6551724 L28.7068966,39.6503448 L33.362069,39.6503448 L32.6958621,31.6551724 C33.5172414,31.46 34.3310345,31.1186207 35.1262069,30.6324138 L35.6896552,39.6503448 L45,39.6503448 L48.1034483,39.6503448 C48.1034483,39.6503448 48.1034483,34.6848276 46.5517241,31.5813793 L37.862069,26.9262069 L37.862069,26.9262069 Z M24.5172414,12.34 C24.5172414,11.8710345 24.5641379,11.4013793 24.6558621,10.9413793 C28.8386207,10.4255172 33.277931,10.4275862 37.4586207,10.9468966 C37.52,11.3875862 37.5517241,11.8517241 37.5517241,12.34 C37.5517241,17.9262069 35.6896552,22.2710345 31.0344828,22.2710345 C27.3103448,22.2710345 24.5172414,17.3055172 24.5172414,12.34 L24.5172414,12.34 Z M31.0344828,25.6848276 C31.602069,25.6848276 32.1413793,25.6406897 32.6524138,25.5558621 C32.7889655,26.3496552 33.1344828,27.0103448 33.6606897,27.6048276 C31.9482759,28.6344828 30.0048276,28.6131034 28.302069,27.5393103 C28.8675862,26.9193103 29.2517241,26.257931 29.4062069,25.5124138 C29.9255172,25.6255172 30.4682759,25.6848276 31.0344828,25.6848276 L31.0344828,25.6848276 Z" id="Shape" fill="#EC5623"></path>
        <path d="M29.4827586,13.2710345 C29.4827586,12.34 28.862069,11.7193103 27.9310345,11.7193103 C27,11.7193103 26.3793103,12.34 26.3793103,13.2710345 C26.3793103,14.202069 27,14.8227586 27.9310345,14.8227586 C28.862069,14.8227586 29.4827586,14.202069 29.4827586,13.2710345 L29.4827586,13.2710345 Z" id="Shape" fill="#EC5623"></path>
        <path d="M53.037931,20.4710345 C53.037931,19.7882759 52.6034483,19.3227586 51.9206897,19.3227586 C51.237931,19.3227586 50.8034483,19.7882759 50.8034483,20.4710345 C50.8034483,21.1227586 51.237931,21.5882759 51.9206897,21.5882759 C52.6034483,21.5882759 53.037931,21.1227586 53.037931,20.4710345 L53.037931,20.4710345 Z" id="Shape" fill="#EC5623"></path>
        <path d="M62.0689655,39.6503448 C62.0689655,39.6503448 62.0689655,36.0193103 60.9206897,33.7848276 L54.6206897,30.402069 C53.3172414,29.7503448 53.0689655,28.9744828 53.037931,28.2606897 C55.3965517,26.5227586 56.637931,22.9848276 56.637931,19.7882759 C56.637931,16.1572414 54.1551724,12.5572414 49.6551724,12.5572414 C45.4655172,12.5572414 42.6724138,15.5055172 42.6724138,19.7882759 C42.6724138,23.3262069 44.3482759,26.1193103 46.2724138,28.4468966 C50.337931,33.3503448 49.9034483,39.6503448 49.9034483,39.6503448 L62.0689655,39.6503448 L62.0689655,39.6503448 Z M49.6551724,27.0193103 C46.9551724,27.0193103 44.9068966,23.5124138 44.9068966,19.7882759 C44.9068966,18.2986207 45.5586207,16.8089655 46.737931,15.8468966 C49.562069,18.7331034 51.5793103,18.64 54.2793103,18.4537931 C54.3413793,18.8572414 54.4034483,19.3227586 54.4034483,19.7882759 C54.4034483,23.9468966 52.9448276,27.0193103 49.6551724,27.0193103 L49.6551724,27.0193103 Z" id="Shape" fill="#EC5623"></path>
    </g>
</svg>