<svg width="80px" height="80px" viewBox="7 10 80 80" version="1.1" xmlns="http://www.w3.org/2000/svg" xmlns:xlink="http://www.w3.org/1999/xlink">
    <g id="fridge-icon" stroke="none" stroke-width="1" fill="none" fill-rule="evenodd" transform="translate(7.000000, 10.000000)">
        <path d="M52.7346939,12 L27.2653061,12 C25.4367347,12 24,13.4367347 24,15.2653061 L24,64.0489796 C24,65.877551 25.4367347,67.3142857 27.2653061,67.3142857 L28.8326531,67.3142857 L28.8326531,68.7510204 L32.8816327,68.7510204 L32.8816327,67.3142857 L47.7714286,67.3142857 L47.7714286,68.7510204 L51.8204082,68.7510204 L51.8204082,67.3142857 L52.7346939,67.3142857 C54.5632653,67.3142857 56,65.877551 56,64.0489796 L56,15.2653061 C56,13.5020408 54.5632653,12 52.7346939,12 L52.7346939,12 Z M53.3877551,64.0489796 C53.3877551,64.4408163 53.1265306,64.7020408 52.7346939,64.7020408 L27.2653061,64.7020408 C26.8734694,64.7020408 26.6122449,64.4408163 26.6122449,64.0489796 L26.6122449,15.2653061 C26.6122449,14.8734694 26.8734694,14.6122449 27.2653061,14.6122449 L52.7346939,14.6122449 C53.1265306,14.6122449 53.3877551,14.8734694 53.3877551,15.2653061 L53.3877551,64.0489796 L53.3877551,64.0489796 Z M49.7959184,31.0040816 C49.077551,31.0040816 48.4897959,31.5918367 48.4897959,32.3102041 L48.4897959,46.155102 C48.4897959,46.8734694 49.077551,47.4612245 49.7959184,47.4612245 C50.5142857,47.4612245 51.1020408,46.8734694 51.1020408,46.155102 L51.1020408,32.3102041 C51.1020408,31.5918367 50.5142857,31.0040816 49.7959184,31.0040816 L49.7959184,31.0040816 Z" id="Shape" fill="#EC5623"></path>
        <path d="M40,77 L40,77 C60.4345357,77 77,60.4345357 77,40 C77,19.5654643 60.4345357,3 40,3 C19.5654643,3 3,19.5654643 3,40 C3,60.4345357 19.5654643,77 40,77 L40,77 Z M40,80 L40,80 C17.90861,80 0,62.09139 0,40 C0,17.90861 17.90861,0 40,0 C62.09139,0 80,17.90861 80,40 C80,62.09139 62.09139,80 40,80 L40,80 Z" id="Oval-29-Copy" fill="#EC5623"></path>
    </g>
</svg>