<svg width="60px" height="60px" viewBox="690 276 60 60" version="1.1" xmlns="http://www.w3.org/2000/svg" xmlns:xlink="http://www.w3.org/1999/xlink">
    <path d="M720,336 C736.519824,336 750,322.519824 750,306 C750,289.480176 736.519824,276 720,276 C703.480176,276 690,289.480176 690,306 C690,322.519824 703.480176,336 720,336 L720,336 Z M720,281.088106 C733.744493,281.088106 744.911894,292.255507 744.911894,306 C744.911894,319.744493 733.744493,330.911894 720,330.911894 L720,330.911894 C706.255507,330.911894 695.088106,319.744493 695.088106,306 C695.088106,292.255507 706.255507,281.088106 720,281.088106 L720,281.088106 Z M720,325.493392 C730.770925,325.493392 739.493392,316.770925 739.493392,306 C739.493392,295.229075 730.770925,286.506608 720,286.506608 C709.229075,286.506608 700.506608,295.229075 700.506608,306 C700.506608,316.770925 709.229075,325.493392 720,325.493392 L720,325.493392 Z M713.193833,313.731278 C713.39207,313.070485 713.524229,312.475771 713.722467,311.814978 C713.920705,311.088106 714.118943,310.955947 714.845815,311.352423 C715.969163,311.947137 717.22467,312.277533 718.546256,312.475771 C719.405286,312.60793 720.198238,312.475771 720.92511,312.145374 C722.378855,311.550661 722.577093,309.832599 721.387665,308.84141 C720.991189,308.511013 720.528634,308.246696 720,308.048458 C718.744493,307.519824 717.422907,307.057269 716.23348,306.330396 C714.317181,305.207048 713.061674,303.621145 713.259912,301.242291 C713.39207,298.599119 714.911894,296.947137 717.356828,296.088106 C718.348018,295.69163 718.348018,295.757709 718.348018,294.700441 L718.348018,293.643172 C718.348018,292.85022 718.480176,292.718062 719.273128,292.718062 L720,292.718062 C721.651982,292.718062 721.651982,292.718062 721.651982,294.370044 C721.651982,295.559471 721.651982,295.559471 722.84141,295.757709 C723.76652,295.889868 724.625551,296.154185 725.418502,296.550661 C725.881057,296.748899 726.079295,297.079295 725.881057,297.54185 C725.682819,298.268722 725.484581,298.995595 725.220264,299.722467 C725.022026,300.38326 724.757709,300.515419 724.162996,300.185022 C722.84141,299.524229 721.453744,299.259912 720.066079,299.39207 C719.669604,299.39207 719.339207,299.45815 718.942731,299.590308 C717.687225,300.118943 717.488987,301.506608 718.546256,302.365639 C719.07489,302.828194 719.669604,303.092511 720.330396,303.356828 C721.453744,303.819383 722.577093,304.281938 723.568282,304.810573 C726.938326,306.660793 727.797357,310.889868 725.484581,313.731278 C724.625551,314.788546 723.502203,315.449339 722.246696,315.845815 C721.651982,315.977974 721.453744,316.30837 721.453744,316.903084 L721.453744,318.621145 C721.453744,319.14978 721.189427,319.414097 720.660793,319.414097 L718.810573,319.414097 C718.281938,319.414097 718.017621,319.0837 718.017621,318.555066 L718.017621,317.299559 C718.017621,316.374449 717.951542,316.30837 717.092511,316.176211 C715.969163,315.977974 714.845815,315.713656 713.788546,315.251101 C713.061674,314.788546 712.929515,314.590308 713.193833,313.731278 L713.193833,313.731278 Z" id="Shape" stroke="none" fill="#EC5623" fill-rule="evenodd"></path>
</svg>