<svg width="300px" height="300px" viewBox="0 0 300 300" version="1.1" xmlns="http://www.w3.org/2000/svg" xmlns:xlink="http://www.w3.org/1999/xlink">
    <g id="Group-9" stroke="none" stroke-width="1" fill="none" fill-rule="evenodd">
        <rect id="Rectangle-67" fill="#FFFFFF" x="0" y="0" width="300" height="300.841584"></rect>
        <g id="Image" transform="translate(85.573770, 98.636585)" stroke="#BBBDBF">
            <path d="M42.9428366,30.3787086 C42.9428366,23.1908892 37.1723929,17.3592621 30.0599856,17.3592621 C22.9475783,17.3592621 17.1771346,23.1908892 17.1771346,30.3787086 C17.1771346,37.5665281 22.9475783,43.3981552 30.0599856,43.3981552 C37.1723929,43.3981552 42.9428366,37.5665281 42.9428366,30.3787086 L42.9428366,30.3787086 Z M111.651375,56.4176017 L83.7385313,28.2088009 L49.384262,62.927325 L38.6485529,52.0777862 L17.1771346,73.7768638 L17.1771346,86.7963104 L111.651375,86.7963104 L111.651375,56.4176017 Z M128.82851,10.8495388 C128.82851,4.88229246 123.997441,7.10542736e-15 118.092801,7.10542736e-15 L10.7357091,7.10542736e-15 C4.83106911,7.10542736e-15 0,4.88229246 0,10.8495388 L0,93.3060336 C0,99.27328 4.83106911,104.155572 10.7357091,104.155572 L118.092801,104.155572 C123.997441,104.155572 128.82851,99.27328 128.82851,93.3060336 L128.82851,10.8495388 Z" id="photo-icon"></path>
        </g>
    </g>
</svg>